<svg width="306" height="217" viewBox="0 0 306 217" fill="none" xmlns="http://www.w3.org/2000/svg">
<path d="M45.9552 33H40.0448C31.7358 33 25 39.7157 25 48C25 56.2843 31.7358 63 40.0448 63H45.9552C54.2642 63 61 56.2843 61 48C61 39.7157 54.2642 33 45.9552 33Z" fill="#FDF0AD"/>
<path d="M260.206 33H84.7938C76.6234 33 70 39.7157 70 48C70 56.2843 76.6234 63 84.7938 63H260.206C268.377 63 275 56.2843 275 48C275 39.7157 268.377 33 260.206 33Z" fill="#FDF0AD"/>
<path d="M255.183 185H44.817C36.0815 185 29 192.163 29 201C29 209.837 36.0815 217 44.817 217H255.183C263.918 217 271 209.837 271 201C271 192.163 263.918 185 255.183 185Z" fill="#FDF0AD"/>
<path d="M261.419 69H44.581C19.9596 69 0 88.9233 0 113.5C0 138.077 19.9596 158 44.581 158H261.419C286.04 158 306 138.077 306 113.5C306 88.9233 286.04 69 261.419 69Z" fill="#FDF0AD"/>
<path d="M290 217C298.837 217 306 210.06 306 201.5C306 192.94 298.837 186 290 186C281.163 186 274 192.94 274 201.5C274 210.06 281.163 217 290 217Z" fill="#FDF0AD"/>
<path d="M42 155C42.8793 155.258 50.8085 157.705 53.6529 165.526C56.0894 172.221 53.7959 180.074 47.8264 185H256C249.008 184.179 243.648 178.516 243.277 171.842C242.875 164.621 248.41 158.016 256 157.105C184.668 156.405 113.332 155.7 42 155Z" fill="#FDF0AD"/>
<path d="M208.104 85H102.785C99.0564 85 96.0342 88.0185 96.0342 91.7421V170.292C96.0342 174.015 99.0564 177.034 102.785 177.034H208.104C211.832 177.034 214.855 174.015 214.855 170.292V91.7421C214.855 88.0185 211.832 85 208.104 85Z" fill="#A8A8A8"/>
<path d="M89.6685 174.915C88.5621 165.033 87.768 156.916 87.2436 151.301C86.6283 144.713 86.1857 139.409 84.2125 115.274C84.1246 114.209 83.0879 101.509 83 100.44C83.7305 98.0845 85.3158 94.3638 88.7592 92.8713C89.6442 92.4868 90.2111 92.4444 93.9121 92.2658C103.578 91.7995 104.657 91.8601 105.734 91.963C109.056 92.2779 111.144 92.4959 113.614 93.7795C115.955 94.9965 117.528 96.592 118.464 97.7151C172.388 97.9513 189.347 98.0179 191.818 98.0179C196.461 98.0179 198.785 98.0179 198.789 98.0179C200.608 97.9937 200.614 97.9725 200.911 98.0179C205.609 98.7263 208.028 104.297 208.186 104.678C208.922 106.443 209.065 107.942 209.095 108.311C210.211 121.296 210.005 168.972 210.005 170.373C210.005 175.408 210.005 175.52 210.005 175.52C210.038 177.261 210.071 177.288 210.005 177.639C209.523 180.185 207.046 182.295 204.549 182.786C203.309 183.028 202.315 182.822 202.124 182.786C199.459 182.259 167.005 182.232 102.096 182.18C100.869 182.18 98.1072 182.18 94.5183 182.18C93.7939 181.832 92.5541 181.115 91.4872 179.758C89.9504 177.806 89.717 175.729 89.6685 174.915Z" fill="#E0E4E5"/>
<path d="M163 93.4449C163.042 93.1088 163.109 92.6517 163.206 92.0977" stroke="black" stroke-width="2" stroke-miterlimit="10"/>
<path d="M163.81 89.4334C164.867 85.5614 167.211 79.9455 172.466 75.2136C174.719 73.1852 181.651 67.5906 190.72 67.7873C194.757 67.8751 194.754 69.0104 204.918 71.838C213.775 74.3024 218.288 75.5133 222.495 74.5385C223.717 74.2569 230.798 72.4829 234.665 65.759C234.908 65.3412 238.039 59.7041 236.693 52.9287C235.923 49.0506 234.417 48.4936 233.989 45.5025C233.614 42.8747 234.174 39.1085 238.272 34.0527" stroke="black" stroke-width="2" stroke-miterlimit="10" stroke-dasharray="9.03 9.03"/>
<path d="M239.154 33.0081C239.445 32.6781 239.751 32.3391 240.073 32" stroke="black" stroke-width="2" stroke-miterlimit="10"/>
<path d="M258.024 11.9146C256.536 11.1123 254.532 9.73482 253.056 7.49755C252.174 6.16246 251.946 5.22396 251.91 4.44288C251.886 3.88886 251.828 2.62642 252.728 1.6637C252.895 1.48508 253.438 0.903814 254.256 0.791799C255.805 0.576852 257.124 2.20258 257.969 3.24402C258.436 3.81923 259.151 4.83341 259.661 6.29869C260.276 8.06368 260.3 9.66519 260.206 10.7702C259.479 11.1517 258.751 11.5331 258.024 11.9146Z" fill="#D0D8DB"/>
<path d="M257.979 10.1857C258.009 8.37835 258.33 5.79899 259.727 3.29833C260.564 1.80278 261.343 1.12464 262.064 0.706851C262.58 0.410163 263.75 -0.267978 265.111 0.113478C265.362 0.183109 266.181 0.413192 266.693 1.13372C267.66 2.49606 266.766 4.54563 266.19 5.86256C265.875 6.58611 265.262 7.76984 264.123 8.97173C262.746 10.4249 261.237 11.2393 260.143 11.6934C259.421 11.1908 258.7 10.6883 257.979 10.1857Z" fill="#D0D8DB"/>
<path d="M251.325 18.62C251.203 17.8116 251.115 16.4765 251.588 14.978C252.343 12.5833 254.056 11.2573 255.077 10.4883C257.82 8.42359 262.058 7.12482 266.286 8.37515C267.347 8.69 270.703 9.683 272.524 12.8103C273.746 14.9083 273.837 17.2092 273.846 17.8782C273.855 18.5594 273.864 19.2769 273.634 20.0973C272.855 22.8765 270.027 24.2964 268.187 25.2197C266.608 26.0129 264.046 27.2996 260.627 26.909C257.814 26.5881 255.865 25.2954 255.129 24.7959C253.586 23.7454 252.567 22.5647 251.955 21.7322" fill="#FDF0AD"/>
<path d="M252.013 16.5097L249 15.877C249.185 16.3553 249.488 16.9668 250.003 17.5663C251.301 19.0769 253.022 19.4645 253.65 19.5734C253.104 18.5532 252.559 17.533 252.01 16.5097H252.013Z" fill="#513718"/>
<mask id="mask0_1258_1687" style="mask-type:luminance" maskUnits="userSpaceOnUse" x="251" y="7" width="23" height="20">
<path d="M251.325 18.62C251.203 17.8116 251.115 16.4765 251.588 14.978C252.343 12.5833 254.056 11.2573 255.077 10.4883C257.82 8.42359 262.058 7.12482 266.286 8.37515C267.347 8.69 270.703 9.683 272.524 12.8103C273.746 14.9083 273.837 17.2092 273.846 17.8782C273.855 18.5594 273.864 19.2769 273.634 20.0973C272.855 22.8765 270.027 24.2964 268.187 25.2197C266.608 26.0129 264.046 27.2996 260.627 26.909C257.814 26.5881 255.865 25.2954 255.129 24.7959C253.586 23.7454 252.567 22.5647 251.955 21.7322" fill="white"/>
</mask>
<g mask="url(#mask0_1258_1687)">
<path d="M251.43 10.9117C250.885 12.7161 250.033 16.4428 251.112 20.8932C251.746 23.4998 252.831 25.4918 253.704 26.8087C254.462 26.7724 255.219 26.7391 255.977 26.7028C254.843 24.2324 253.592 20.7327 253.122 16.4065C252.879 14.1783 252.891 12.1651 253.016 10.4395C252.488 10.5969 251.958 10.7573 251.43 10.9148V10.9117Z" fill="#513718"/>
<path d="M261.539 7.95705C261.576 6.49783 261.673 5.16878 261.794 3.99414C260.348 4.29386 258.905 4.59357 257.459 4.89329C257.153 6.27077 256.871 7.80567 256.656 9.48287C258.087 8.71087 259.757 8.1508 261.539 7.96007V7.95705Z" fill="#513718"/>
<path d="M260.63 26.9118C259.288 26.7574 258.145 26.3851 257.232 25.9824C257.557 27.5991 257.927 29.0613 258.302 30.3449C261.176 30.6083 264.046 30.8717 266.92 31.1381C266.217 29.7909 265.501 28.2742 264.835 26.5879C263.628 26.9149 262.222 27.0965 260.627 26.9149L260.63 26.9118Z" fill="#513718"/>
</g>
<mask id="mask1_1258_1687" style="mask-type:luminance" maskUnits="userSpaceOnUse" x="251" y="7" width="23" height="20">
<path d="M251.325 18.62C251.203 17.8116 251.115 16.4765 251.588 14.978C252.343 12.5833 254.056 11.2573 255.077 10.4883C257.82 8.42359 262.058 7.12482 266.286 8.37515C267.347 8.69 270.703 9.683 272.524 12.8103C273.746 14.9083 273.837 17.2092 273.846 17.8782C273.855 18.5594 273.864 19.2769 273.634 20.0973C272.855 22.8765 270.027 24.2964 268.187 25.2197C266.608 26.0129 264.046 27.2996 260.627 26.909C257.814 26.5881 255.865 25.2954 255.129 24.7959C253.586 23.7454 252.567 22.5647 251.955 21.7322" fill="white"/>
</mask>
<g mask="url(#mask1_1258_1687)">
<path d="M257.46 4.89026C256.811 7.81778 256.268 11.4628 256.244 15.6618C256.208 21.6864 257.247 26.715 258.305 30.3418C261.179 30.6052 264.049 30.8686 266.923 31.135C265.622 28.6495 264.292 25.5767 263.276 21.9468C261.239 14.6779 261.342 8.29914 261.797 3.99414C260.351 4.29386 258.908 4.59357 257.463 4.89329L257.46 4.89026Z" fill="#513718"/>
</g>
<path d="M268.984 17.0704C269.156 17.0704 269.296 16.7518 269.296 16.3589C269.296 15.966 269.156 15.6475 268.984 15.6475C268.812 15.6475 268.672 15.966 268.672 16.3589C268.672 16.7518 268.812 17.0704 268.984 17.0704Z" fill="#513718"/>
<path d="M270.939 17.0704C271.112 17.0704 271.251 16.7518 271.251 16.3589C271.251 15.966 271.112 15.6475 270.939 15.6475C270.767 15.6475 270.627 15.966 270.627 16.3589C270.627 16.7518 270.767 17.0704 270.939 17.0704Z" fill="#513718"/>
<path d="M269.303 18.3418C269.409 18.4599 269.545 18.5749 269.694 18.5689C269.909 18.5567 269.967 18.2843 270.182 18.2752C270.403 18.2661 270.524 18.5446 270.703 18.5234C270.818 18.5113 270.888 18.3842 270.93 18.251" stroke="#513718" stroke-width="2" stroke-miterlimit="10"/>
</svg>
