<svg width="410" height="263" viewBox="0 0 410 263" fill="none" xmlns="http://www.w3.org/2000/svg">
<path d="M62.3928 248.049C59.5458 244.364 57.053 240.173 57.053 240.173C53.332 233.914 51.4518 228.794 49.4649 223.295C44.3358 209.089 41.7699 201.986 40.7526 198.54C37.6386 187.991 35.9186 178.891 32.6023 161.127C30.0898 147.661 28.8336 140.929 27.8246 133.84C25.3458 116.411 23.2043 101.358 24.4521 82.3618C25.6747 63.7451 26.2873 54.4396 32.8834 44.6672C40.5249 33.3503 51.4153 28.3657 64.3601 22.4442C72.1562 18.8773 81.1102 15.7098 101.739 11.4734C126.805 6.32556 146.452 4.24673 152.888 3.59692C170.577 1.81065 197.102 -0.774528 232.423 0.221285C272.345 1.3465 276.179 5.71232 307.461 7.53516C307.461 7.53516 320.693 8.30593 338.376 14.2864C340.467 14.9925 344.033 16.2865 347.931 19.0686C352.625 22.4189 355.429 26.2362 357.206 28.9142C367.526 44.4759 372.944 62.9519 372.944 62.9519C377.216 77.5177 380.746 89.5491 383.624 107.679C387.064 129.351 387.308 145.452 387.558 161.971C387.558 161.971 387.8 177.859 385.31 201.072C385.018 203.789 382.924 221.972 374.911 231.171C372.118 234.375 368.728 237.078 368.728 237.078C368.728 237.078 364.187 240.699 358.611 243.267C335.194 254.058 307.461 255.926 307.461 255.926C263.329 258.899 286.439 260.033 241.697 262.114C196.287 264.227 201.174 261.723 146.143 262.958C146.143 262.958 75.1493 264.551 62.3928 248.049Z" fill="#EAEAEA"/>
<path d="M35.9748 174.629C27.701 176.97 21.282 179.904 16.864 182.224C10.6951 185.465 6.991 188.267 3.93608 192.07C0.0436469 196.911 -0.0153719 199.915 0.00149062 200.79C0.0886136 205.125 3.12106 208.141 4.21712 209.229C7.06407 212.059 10.4984 213.336 15.1777 214.293C20.6159 215.404 25.2166 215.564 35.6938 215.137C45.075 214.754 53.599 214.13 59.0203 213.73C63.5282 213.398 66.4285 213.23 72.2292 212.886C75.7985 212.675 76.8439 212.63 78.1311 212.605C79.1513 212.585 83.7351 212.518 90.2159 213.168C100.19 214.169 107.773 216.18 111.013 217.106C113.941 217.941 116.35 218.754 118.039 219.356C117.946 215.699 117.851 212.042 117.758 208.386C115.229 208.011 112.699 207.634 110.17 207.26C104.999 206.492 102.593 206.138 102.582 206.135C83.884 203.376 69.1378 203.322 69.1378 203.322C62.6907 203.3 56.6876 203.775 44.6871 204.729C36.3205 205.392 30.3709 206.056 22.2038 204.729C15.4504 203.629 10.9481 203.707 10.4 201.634C10.2174 200.942 10.4366 199.972 12.9294 197.415C18.5587 191.637 25.3796 188.421 31.1971 186.444C32.7569 185.912 35.1711 185.156 38.2232 184.475C37.4728 181.192 36.7252 177.912 35.9748 174.629Z" fill="#FDF0AD"/>
<path d="M295.095 212.324C297.256 212.403 300.354 212.51 304.089 212.605C313.127 212.839 316.505 212.771 320.389 212.324C327.075 211.553 329.278 210.335 330.507 209.511C331.903 208.574 334.851 206.597 335.565 203.041C336.262 199.575 334.458 196.501 334.16 196.008C333.188 194.402 332.51 194.349 331.35 192.351C330.574 191.015 329.644 189.412 329.663 187.569C329.706 183.417 334.545 180.66 335.284 180.255C337.631 178.967 339.48 178.925 342.872 178.568C347.023 178.132 351.101 177.147 355.238 176.598C357.925 176.241 357.714 176.196 376.597 172.379C376.597 172.379 386.434 170.39 396.832 165.346C397.886 164.834 400.132 163.673 400.486 161.689C400.677 160.62 400.267 159.591 400.205 159.439C399.772 158.387 398.999 157.712 398.238 157.189C396.453 155.962 392.434 153.976 386.996 151.844V141.436C391.203 142.775 394.505 144.372 396.832 145.655C402.082 148.553 406.155 150.8 408.355 155.501C408.909 156.685 410.488 160.058 409.479 163.94C409.15 165.2 408.246 167.684 404.14 170.972C399.154 174.964 394.109 176.41 390.368 177.442C379.925 180.326 374.703 181.766 370.414 182.506C361.413 184.056 352.563 187.555 343.434 187.288C342.951 187.274 341.11 187.198 340.624 188.132C340.18 188.981 341.147 190.115 342.31 192.351C342.31 192.351 343.193 194.05 344.278 197.134C345.607 200.92 345.003 205.806 342.872 209.511C341.166 212.481 338.851 214.048 336.408 215.7C336.408 215.7 333.067 217.958 328.82 219.356C322.71 221.368 310.336 222.296 294.533 220.763C294.722 217.95 294.907 215.137 295.095 212.324Z" fill="#FDF0AD"/>
<path d="M295.376 212.886C295.472 211.252 295.542 209.635 294.533 208.104C293.193 206.073 290.801 205.483 289.756 205.291C289.005 213.261 288.258 221.233 287.507 229.202C290.284 229.258 291.816 228.367 292.566 227.796C294.559 226.279 294.859 221.795 295.376 212.886Z" fill="#FBC966"/>
<path d="M242.119 193.195H218.793C217.008 193.195 215.561 194.644 215.561 196.43V196.993C215.561 198.78 217.008 200.228 218.793 200.228H242.119C243.904 200.228 245.351 198.78 245.351 196.993V196.43C245.351 194.644 243.904 193.195 242.119 193.195Z" fill="white"/>
<path d="M240.152 218.512H216.825C215.04 218.512 213.593 219.961 213.593 221.747V222.31C213.593 224.097 215.04 225.545 216.825 225.545H240.152C241.937 225.545 243.384 224.097 243.384 222.31V221.747C243.384 219.961 241.937 218.512 240.152 218.512Z" fill="white"/>
<path d="M259.403 178.286V174.348C256.377 174.022 251.77 173.794 246.194 174.629C243.834 174.984 242.631 175.169 241.417 175.754C238.719 177.051 235.703 180.044 232.985 191.226C232.525 193.122 231.226 198.737 230.456 209.792C230.088 215.092 230.304 220.825 230.737 232.296C230.934 237.475 231.15 241.073 233.829 243.83C236.153 246.221 239.208 246.826 241.136 247.205C246.728 248.311 251.453 246.589 253.783 245.518C255.657 223.106 257.529 200.698 259.403 178.286Z" fill="#FBC966"/>
<path d="M213.161 153.019C213.276 158.716 212.464 164.086 209.454 168.632C206.596 172.95 202.942 176.742 199.317 181.161C203.316 182.278 206.292 180.553 209.057 178.897C217.601 173.777 221.569 165.467 223.989 156.274C224.652 153.751 225.602 152.15 228.343 151.45C238.376 148.887 243.123 141.748 244.002 131.916C244.893 121.955 244.182 112.247 236.709 104.433C231.204 98.6745 223.992 96.2975 216.556 94.5759C203.985 91.6616 191.568 91.4113 179.177 96.14C161.508 102.883 154.488 118.453 160.777 136.344C164.889 148.038 173.435 152.71 184.77 154.184C193.665 155.34 202.459 154.522 211.233 153.033C211.73 152.949 212.256 153.022 213.166 153.022L213.161 153.019Z" fill="white"/>
<path d="M204.358 105.313C206.011 105.589 207.68 105.783 209.31 106.157C216.873 107.899 223.042 111.899 227.957 117.874C228.713 118.791 228.654 119.609 227.828 120.487C227.291 121.058 226.749 121.626 226.198 122.186C225.355 123.044 224.725 123.021 223.972 122.068C221.757 119.266 219.152 116.909 216.078 115.091C204.018 107.963 189.036 110.799 180.189 121.868C179.216 123.086 178.707 123.114 177.631 122C177.125 121.477 176.611 120.957 176.116 120.422C175.369 119.612 175.307 118.762 175.993 117.933C181.613 111.125 188.721 106.908 197.501 105.628C198.217 105.524 198.931 105.415 199.645 105.311C201.216 105.311 202.784 105.311 204.355 105.311L204.358 105.313Z" fill="black"/>
<path d="M201.331 147.061C199.266 146.164 198.344 144.836 198.56 143.075C198.777 141.303 200.109 139.975 201.792 139.854C203.374 139.742 204.951 140.909 205.347 142.493C205.783 144.231 204.993 145.992 203.442 146.732C203.192 146.85 202.933 146.955 202.677 147.064H201.331V147.061Z" fill="black"/>
<path d="M203.731 117.072C209.465 117.229 215.389 120.349 219.905 126.217C220.625 127.148 220.56 128.006 219.767 128.861C219.253 129.415 218.719 129.953 218.194 130.496C217.145 131.576 216.682 131.542 215.827 130.327C213.289 126.718 209.923 124.293 205.6 123.334C198.903 121.851 192.259 124.521 188.243 130.228C187.29 131.581 186.883 131.61 185.716 130.403C185.23 129.899 184.741 129.398 184.263 128.884C183.46 128.02 183.406 127.173 184.081 126.239C188.19 120.535 195.002 117.055 203.731 117.075V117.072Z" fill="black"/>
<path d="M202.22 128.78C206.306 128.858 209.881 130.566 212.691 133.866C213.332 134.619 213.318 135.489 212.66 136.226C212.064 136.895 211.426 137.528 210.8 138.169C209.945 139.044 209.434 139.019 208.686 138.06C207.551 136.605 206.137 135.548 204.364 135.008C201.109 134.02 197.7 135.12 195.483 137.86C194.488 139.089 194.12 139.109 193.032 137.989C192.484 137.427 191.928 136.873 191.402 136.29C190.677 135.486 190.677 134.645 191.371 133.801C193.926 130.687 197.793 128.855 202.217 128.78H202.22Z" fill="black"/>
<path d="M184.064 104.328L182.75 105.54C182.028 106.205 181.982 107.33 182.647 108.052L212.229 140.196C212.894 140.918 214.017 140.964 214.739 140.299L216.053 139.087C216.775 138.422 216.821 137.297 216.156 136.575L186.574 104.431C185.91 103.709 184.786 103.662 184.064 104.328Z" fill="#ED7272"/>
<path d="M286.805 170.269C289.883 179.892 293.255 187.237 295.799 192.211C300.469 201.345 302.805 205.913 303.949 207.682C303.949 207.682 309.941 216.94 310.413 222.591C310.607 224.901 310.702 226.057 310.132 227.374C309.752 228.251 309.095 229.194 309.007 230.749C308.971 231.405 308.948 231.962 309.289 232.437C310.047 233.5 312.152 233.509 313.504 232.718C313.763 232.566 314.364 232.17 315.471 229.905C316.877 227.03 316.41 226.637 317.72 223.717C318.4 222.2 318.816 221.66 318.563 220.904C318.282 220.062 317.492 219.925 316.315 218.653C316.315 218.653 315.708 218.001 314.909 216.684C313.417 214.228 313.232 210.892 312.942 208.526C312.686 206.433 312.209 204.599 311.256 200.931C310.491 197.991 309.331 194.9 307.04 188.835C304.744 182.756 304.266 181.842 303.949 179.552C303.482 176.188 303.839 173.324 304.23 171.394C298.421 171.02 292.614 170.643 286.805 170.269Z" fill="black"/>
<path d="M274.72 168.019C274.532 176.084 274.347 184.146 274.158 192.211C277.623 193.147 281.092 194.087 284.557 195.024C284.745 185.085 284.931 175.144 285.119 165.206C281.654 166.142 278.186 167.082 274.72 168.019Z" fill="#F4B79D"/>
<path d="M263.619 129.621C267.011 137.953 270.592 148.977 272.612 162.252C274.361 173.746 274.481 183.904 274.018 192.07L284.978 196.29C285.729 182.598 286.476 168.91 287.227 155.219C285.071 144.811 282.918 134.403 280.763 123.995C275.049 125.871 269.333 127.744 263.619 129.621Z" fill="#232768"/>
<path d="M286.102 155.219C285.852 160.679 286.069 166.952 287.227 173.785C291.06 196.38 303.013 212.144 310.272 220.2C311.77 218.982 313.271 217.761 314.769 216.543C314.476 213.719 313.881 209.356 312.52 204.166C309.685 193.344 306.343 189.679 304.932 181.662C303.592 174.038 305.062 168.545 305.775 164.221C307.389 154.434 306.998 139.233 297.344 116.118C291.816 118.743 286.291 121.37 280.763 123.995C282.542 134.403 284.323 144.811 286.102 155.219Z" fill="#232768"/>
<path d="M234.953 33.6965C235.366 32.2 236.153 30.2759 237.763 28.633C244.598 21.6652 259.111 27.069 260.246 27.5078C272.964 32.4166 280.928 48.78 281.887 68.5781C275.985 69.2335 270.083 69.8918 264.181 70.5472C254.437 58.2627 244.696 45.981 234.953 33.6965Z" fill="black"/>
<path d="M243.946 74.7667L246.476 72.235C247.552 72.5922 249.334 73.1858 251.534 73.9228C260.598 76.9637 261.7 77.4335 263.057 77.0171C267.464 75.6669 268.436 66.8593 268.678 63.7959H275.142L285.259 74.7667C287.185 80.4912 287.98 85.2424 288.351 88.5506C288.955 93.96 288.587 96.9897 290.318 102.334C291.718 106.655 293.401 109.128 293.972 109.93C296.436 113.398 298.3 113.812 298.468 114.993C298.823 117.474 291.659 121.761 263.619 129.621C263.712 124.65 263.808 119.682 263.9 114.712C262.596 112.492 260.469 109.457 257.155 106.554C252.92 102.844 248.634 101.004 245.914 100.084C245.259 91.6449 244.601 83.2058 243.946 74.7667Z" fill="#E56E45"/>
<path d="M270.364 63.7959C270.487 69.8045 270.976 76.4095 272.05 83.4871C274.504 99.6592 279.219 113.125 283.854 123.432L287.226 121.744C285.253 117.961 283.348 113.837 281.605 109.367C274.911 92.2103 273.045 76.2295 272.893 63.7959H270.364Z" fill="white"/>
<path d="M261.23 59.1543C261.382 59.821 261.781 61.1262 262.917 62.2486C265.21 64.5159 268.448 64.0011 268.819 63.9364C268.734 65.2051 268.529 67.0786 267.975 69.2812C267.315 71.9058 266.295 75.9509 264.322 77.439C261.115 79.8582 253.471 76.9777 246.054 70.1251L261.23 59.1543Z" fill="#EDAF98"/>
<path d="M249.286 99.5214L287.226 81.7993C287.507 83.2987 287.788 84.8008 288.069 86.3002L253.501 104.022C252.096 102.523 250.691 101.021 249.286 99.5214Z" fill="white"/>
<path d="M256.593 105.991C267.272 101.021 277.952 96.0529 288.632 91.0823C288.724 92.4888 288.82 93.8953 288.913 95.3018L260.246 109.648C259.029 108.43 257.81 107.209 256.593 105.991Z" fill="white"/>
<path d="M232.985 46.6363C232.415 47.8909 232.791 49.2552 233.547 51.981C234.028 53.711 235.073 56.8419 238.044 61.264C240.815 65.3879 243.496 69.2727 247.881 70.547C249.418 70.9943 250.441 70.9099 250.972 70.8283C253.189 70.4908 254.586 69.0364 256.593 66.8901C258.751 64.5806 259.971 63.2753 260.808 60.9827C261.86 58.105 261.643 55.486 261.371 53.9501C261.685 53.5985 262.127 53.0359 262.495 52.2623C262.68 51.8713 263.807 49.4155 262.776 46.9176C262.512 46.279 262.023 45.0947 261.089 44.9484C260.111 44.7937 259.24 45.8655 258.841 46.355C257.253 48.3044 257.318 50.808 257.436 51.981C257.475 50.9796 257.568 46.1271 254.344 43.8232C253.423 43.165 252.186 42.6839 247.037 42.9793C239.078 43.4378 234.317 43.7135 232.985 46.6363Z" fill="#F4B79D"/>
<path d="M245.913 92.2074C245.93 90.2917 245.767 87.7656 245.07 84.8935C244.39 82.0917 243.412 79.8188 242.541 78.1422C243.01 77.017 243.476 75.8918 243.946 74.7666C244.395 74.6372 244.764 74.6569 245.07 74.7666C248.31 75.9424 246.529 88.3282 245.913 92.2074Z" fill="#E56E45"/>
<path d="M233.969 53.2469C233.623 53.0359 232.999 52.7264 232.563 52.9655C231.777 53.3988 232.184 55.3172 232.282 55.7786C232.712 57.7983 234.219 60.5495 236.217 60.5607C236.681 60.5607 237.069 60.4173 237.341 60.2794C236.217 57.9362 235.093 55.5901 233.969 53.2469Z" fill="#EDAF98"/>
<path d="M235.234 32.8526C234.011 33.4855 232.499 34.2704 231.299 35.9469C228.402 39.9977 229.262 46.5436 233.266 52.8251C234.649 52.6001 236.032 52.375 237.415 52.15C237.906 51.2498 238.395 50.3496 238.887 49.4495C239.076 50.2005 239.261 50.9488 239.449 51.6999C242.243 51.2639 245.036 50.825 247.833 50.389C247.85 48.8559 247.867 47.3256 247.881 45.7925C248.724 47.0106 249.567 48.2314 250.41 49.4495C252.751 49.261 255.095 49.0753 257.436 48.8869C257.655 48.0739 259.563 40.5378 254.907 35.103C249.713 29.0409 240.315 30.2196 235.234 32.8526Z" fill="black"/>
<path d="M243.103 76.7359C246.965 82.3113 260.404 101.822 264.743 110.492C265.148 111.3 265.665 112.394 266.148 113.868C268.135 119.913 267.329 125.486 266.429 129.058C267.461 128.588 268.49 128.122 269.521 127.652C269.906 124.293 270.108 119.176 268.678 113.305C267.245 107.42 264.814 103.429 256.593 91.3636C252.13 84.8149 248.061 78.9638 244.508 73.9229C244.32 74.1704 244.129 74.4517 243.946 74.7668C243.527 75.4841 243.269 76.1648 243.103 76.7359Z" fill="white"/>
<path d="M263.338 78.4236L259.965 72.5162C255.561 71.8608 251.16 71.2026 246.756 70.5471C247.057 71.4079 247.622 72.6935 248.724 73.9228C250.73 76.1591 253.279 76.8286 256.312 77.5797C257.95 77.9876 260.356 78.4264 263.338 78.4236Z" fill="#232768"/>
<path d="M259.965 72.5162C259.187 73.8159 258.206 75.8187 257.717 78.4236C257.41 80.0523 257.377 81.4954 257.436 82.6432L246.475 75.048C247.225 73.5486 247.973 72.0465 248.723 70.5471C252.47 71.2026 256.219 71.8608 259.965 72.5162Z" fill="#15193A"/>
<path d="M259.965 72.5162C260.623 71.45 261.399 69.9394 261.933 68.0153C262.638 65.4723 262.621 63.2669 262.495 61.8267C264.65 62.3893 266.803 62.9519 268.959 63.5145C269.099 65.7368 269.063 70.4852 266.148 75.0479C265.252 76.4488 264.26 77.5599 263.338 78.4235L259.965 72.5162Z" fill="#232768"/>
<path d="M254.204 76.0324C253.223 74.5218 252.889 73.1406 252.518 71.5316C251.419 66.7663 251.7 67.3655 251.394 66.4681C250.542 63.973 249.708 63.2472 249.989 61.686C250.042 61.3878 250.289 60.0263 251.394 59.4356C252.594 58.7942 254.213 59.3849 255.047 60.2795C255.604 60.8758 255.587 61.3681 256.172 63.0925C256.587 64.3218 257.009 65.2895 257.296 65.9055C258.594 64.9744 259.215 64.0546 259.544 63.3738C259.797 62.8506 260.171 61.8604 260.949 61.686C261.076 61.6579 261.157 61.6382 261.23 61.686C261.747 62.0236 260.477 64.9125 259.544 67.0307C258.687 68.983 258.527 69.1011 258.42 69.8438C258.187 71.4613 258.662 72.8622 258.982 73.782C259.488 75.2335 260.148 76.2434 260.387 76.5951C261.865 78.7864 266.992 85.2395 274.158 93.7545C274.42 91.054 274.614 88.2382 274.72 85.3154C275.013 77.4165 274.622 70.1532 273.877 63.6551C274.847 63.506 276.378 63.4076 278.093 63.9364C282.781 65.3795 284.548 70.1842 284.838 70.969C285.695 73.301 285.588 75.2054 285.4 78.0016C285.4 78.0016 284.371 93.2538 280.903 104.444C280.763 104.897 280.431 105.924 279.498 106.694C278.408 107.595 276.724 107.963 275.282 107.538C274.288 107.246 273.661 106.647 270.786 102.756C269.507 101.026 268.869 100.163 268.537 99.6619C263.715 92.3762 257.984 80.6121 255.047 77.1577C254.938 77.0283 254.589 76.626 254.204 76.0324Z" fill="#EDAF98"/>
<path d="M242.822 77.5796C242.639 77.979 242.372 78.6119 242.119 79.408C241.029 82.8287 241.377 85.743 241.557 87.8471C242.105 94.2608 242.738 94.3902 244.649 105.007C244.708 105.327 245.377 109.049 247.74 112.602C248.535 113.797 249.39 114.776 250.551 114.852C251.765 114.934 252.79 113.991 253.08 113.727C253.516 113.328 254.106 112.636 254.485 111.477C256 106.855 254.766 96.8488 254.766 96.8488C253.667 87.9231 254.176 88.7389 253.361 84.4715C252.532 80.131 251.47 76.5078 250.551 73.782C250.598 72.9296 250.545 71.6975 249.988 70.4063C249.564 69.4246 249.291 69.4358 247.74 67.312C246.178 65.1769 245.399 64.108 245.211 63.3738C245.079 62.8534 244.969 62.1332 244.368 61.6859C244.014 61.4215 243.418 61.1993 242.962 61.4046C242.285 61.7084 242.232 62.8196 242.119 64.2177C241.762 68.6032 241.335 68.26 241.557 69.2811C242.032 71.4697 243.637 73.0787 244.087 73.5007C244.505 73.8945 245.185 74.4487 246.054 75.4698C246.813 76.3615 247.046 76.8229 247.178 77.1576C247.577 78.1647 247.487 79.0705 247.459 79.408C247.313 81.124 247.026 88.0778 246.616 97.6927C246.329 96.7476 245.922 95.1723 245.773 93.1919C245.523 89.8753 246.27 89.0764 245.913 85.7374C245.61 82.8821 244.803 81.0255 244.508 80.3926C243.94 79.1633 243.305 78.2209 242.822 77.5796Z" fill="#EDAF98"/>
<path d="M241.979 79.5489C242.76 81.5996 243.527 83.8528 244.227 86.3001C244.938 88.7897 245.489 91.147 245.913 93.3327C246.194 90.4269 246.475 87.5182 246.756 84.6123C245.539 81.9878 244.32 79.3604 243.103 76.7358C242.729 77.6726 242.352 78.6121 241.979 79.5489Z" fill="#E56E45"/>
<path d="M259.685 72.5163C260.868 73.8328 262.161 75.5094 263.338 77.5798C263.895 78.5587 264.358 79.5039 264.743 80.3928C266.427 77.8892 268.734 73.6303 269.24 68.0155C269.389 66.3726 269.361 64.862 269.24 63.5146C266.966 62.9717 264.693 62.4316 262.419 61.8887C262.515 63.3908 262.47 65.6834 261.652 68.2968C261.095 70.0746 260.342 71.4867 259.685 72.5163Z" fill="#15193A"/>
<path d="M241.136 106.554C243.196 105.055 245.259 103.552 247.319 102.053C246.928 98.6549 246.31 94.8714 245.351 90.801C244.362 86.6039 243.185 82.8401 241.979 79.5488C241.664 80.8175 241.38 82.1284 241.136 83.4871C239.57 92.1287 240.003 100.011 241.136 106.554Z" fill="#232768"/>
<path d="M273.736 63.5145C274.141 63.3935 274.72 63.2585 275.423 63.2332C281.063 63.0306 285.366 70.2461 286.383 71.9536C292.125 81.5882 287.58 93.5717 286.664 95.8643C282.541 93.8952 278.421 91.9261 274.298 89.957C274.11 81.1437 273.925 72.3277 273.736 63.5145Z" fill="#232768"/>
<path d="M290.037 205.573C290.073 204.74 290.124 203.125 289.756 201.072C289.548 199.913 289.075 197.406 287.507 194.883C286.653 193.51 285.95 192.9 282.167 189.538C277.109 185.046 277.314 185.206 277.109 185.037C272.16 181.012 264.487 179.153 259.403 178.286C258.723 180.084 257.767 182.798 256.874 186.163C253.956 197.162 254.277 205.423 254.344 215.418C254.392 222.341 254.333 232.564 253.782 245.518C256.469 245.549 260.153 245.408 264.462 244.674C271.634 243.45 276.19 241.315 277.39 240.735C281.004 238.989 284.07 237.453 286.102 233.984C287.176 232.15 287.6 230.392 287.788 229.202C289.098 218.107 289.865 209.59 290.037 205.573Z" fill="#FBC966"/>
<path d="M164.973 70.8282C167.795 70.7325 171.142 70.364 174.81 69.4216C176.437 69.0053 177.938 68.5215 179.306 68.0151C178.016 64.9967 176.614 61.8996 175.091 58.7321C174.068 56.6055 173.036 54.5435 171.999 52.5435C171.238 52.0568 170.231 51.3282 169.189 50.293C167.233 48.3492 165.561 46.6867 165.816 44.667C166.103 42.394 168.748 40.3236 171.437 40.4474C173.371 40.5374 174.68 41.7302 175.091 42.1352C175.279 44.1044 175.464 46.0735 175.653 48.0426C179.067 51.0357 181.673 53.8009 183.522 55.9191C185.697 58.4114 187.22 60.7688 190.267 65.4834C191.52 67.4244 192.518 69.07 192.234 71.1095C191.959 73.0898 190.615 74.4345 189.986 75.0477C187.442 77.5288 184.163 77.9958 183.241 78.142C179.61 78.7187 173.952 80.4403 164.692 85.1746C164.116 84.3785 162.022 81.287 162.444 77.0168C162.756 73.8662 164.276 71.7058 164.973 70.8282Z" fill="#EDAF98"/>
<path d="M145.3 50.2932L141.085 61.2641C136.869 61.3569 132.653 61.4525 128.438 61.5454C124.222 56.2934 120.006 51.0443 115.791 45.7924C121.861 45.6349 126.001 44.5518 128.719 43.542C131.493 42.5096 133.679 41.2212 136.588 41.8542C137.897 42.1383 139.207 42.7825 140.522 42.1355C141.517 41.646 141.543 40.8921 142.49 39.6037C143.558 38.1466 144.125 38.2929 148.111 35.3842C150.654 33.5276 151.196 32.9059 151.483 32.0085C151.55 31.7976 152.093 30.0113 151.202 28.9142C149.859 27.263 146.065 28.1772 143.895 29.1955C141.857 30.1491 138.814 32.3377 137.431 34.5403C137.229 34.861 136.641 35.8568 135.464 36.5094C135.222 36.6444 134.643 36.937 133.777 37.072C128.727 37.8596 115.229 35.3842 115.229 35.3842C115.229 35.3842 113.298 35.0297 110.451 34.8216C108.006 34.6415 107.354 34.7625 107.078 34.8216C104.743 35.3223 103.158 37.0833 102.582 37.9159C101.657 39.2521 100.881 41.7304 103.706 49.4493C104.78 52.3861 107.556 59.3034 117.294 73.346C117.958 74.3025 118.511 75.0873 118.882 75.6105C126.751 73.2673 134.621 70.9212 142.49 68.5779C143.462 69.4865 145.458 71.0787 148.392 71.6723C154.409 72.8875 159.052 68.8227 159.633 68.2966C154.856 62.2964 150.078 56.2934 145.3 50.2932Z" fill="#EDAF98"/>
<path d="M101.177 221.888C101.25 222.794 101.486 224.068 102.301 225.264C104.31 228.217 107.891 227.835 108.484 230.046C108.815 231.284 108.057 232.76 107.079 233.422C106.508 233.807 105.406 234.22 100.615 232.296C95.4743 230.232 92.8888 229.149 92.1833 226.67C91.7899 225.286 92.262 223.75 92.4644 223.013C92.8972 221.444 93.6363 220.307 94.1506 219.638C96.4917 220.389 98.8356 221.137 101.177 221.888Z" fill="black"/>
<path d="M127.594 152.688C130.734 161.791 133.8 172.953 135.745 185.881C138.066 201.322 138.136 214.943 137.431 225.826C140.992 226.201 144.55 226.577 148.111 226.952C151.733 212.332 155.021 192.495 154.293 169.003C153.768 151.998 151.267 137.258 148.392 125.401C142.582 123.995 136.776 122.588 130.967 121.182C129.843 131.683 128.719 142.187 127.594 152.688Z" fill="#232768"/>
<path d="M107.359 120.338C105.732 122.858 103.661 126.552 102.02 131.308C100.204 136.577 99.4453 141.624 99.2093 147.905C98.7483 160.246 100.589 169.855 100.896 171.535C102.686 181.338 102.475 196.585 93.3074 220.2C95.9295 220.763 98.5544 221.325 101.177 221.888C108.115 211.387 112.758 202.031 115.791 195.164C123.559 177.563 126.709 162.8 129 151.562C131.355 140.004 132.558 130.33 133.215 123.713C124.596 122.588 115.979 121.463 107.359 120.338Z" fill="#232768"/>
<path d="M140.804 61.5454C143.24 63.9843 145.674 66.4204 148.111 68.8593C151.764 68.3895 155.418 67.9226 159.071 67.4528C155.376 72.9635 148.535 74.2266 144.457 71.391C141.607 69.4106 140.233 65.5146 140.804 61.5454Z" fill="#232768"/>
<path d="M165.254 71.1095C163.098 69.7958 160.946 68.485 158.79 67.1713C156.505 70.7523 152.306 72.5414 148.392 71.6721C143.847 70.6651 140.528 66.2627 140.803 61.2639H128.157C128.064 63.0249 127.569 67.793 123.941 71.9534C122.184 73.9676 120.27 75.18 118.882 75.8917C118.905 79.8215 118.618 84.2801 117.758 89.1129C115.349 102.666 109.563 112.861 105.111 119.212C121.693 123.902 138.274 128.588 154.855 133.277C158.321 117.243 161.789 101.209 165.254 85.1747C164.599 84.1029 162.947 81.0761 163.287 77.0169C163.52 74.2348 164.588 72.1813 165.254 71.1095Z" fill="#E56E45"/>
<path d="M118.601 81.7991C133.589 85.5488 148.58 89.3014 163.568 93.0512C163.194 95.0203 162.817 96.9894 162.444 98.9586C147.641 94.9275 132.842 90.8936 118.039 86.8625C118.329 85.7289 118.553 84.4039 118.601 82.9243C118.612 82.5361 118.612 82.162 118.601 81.7991Z" fill="white"/>
<path d="M117.196 91.3633C131.998 94.9274 146.798 98.4887 161.601 102.053C161.131 104.115 160.665 106.18 160.195 108.241C145.488 104.21 130.779 100.177 116.072 96.1454C116.33 94.9415 116.611 93.7234 116.915 92.4885C117.008 92.1115 117.1 91.7374 117.196 91.3633Z" fill="white"/>
<path d="M110.451 110.211C126.001 114.337 141.554 118.461 157.104 122.588C156.73 124.464 156.353 126.338 155.98 128.214C139.867 123.806 123.753 119.401 107.64 114.993C108.576 113.398 109.515 111.806 110.451 110.211Z" fill="white"/>
<path d="M131.248 61.2639C131.366 62.5973 131.942 70.5244 126.47 75.3291C125.284 76.3699 124.02 77.0844 122.817 77.5795C121.957 86.1592 120.153 96.0077 116.634 106.554C115.577 109.721 114.442 112.723 113.261 115.555C114.478 115.837 115.698 116.118 116.915 116.399C119.017 110.756 121.066 104.362 122.817 97.2707C124.354 91.0398 125.433 85.1859 126.189 79.8299C127.592 78.9551 129.424 77.5373 130.967 75.3291C135.065 69.4695 133.817 62.7773 133.496 61.2639H131.248Z" fill="white"/>
<path d="M163.287 69.7031C162.685 70.5808 159.035 76.1056 161.038 82.0805C161.6 83.757 162.472 85.0595 163.287 86.0187C159.633 99.6141 155.98 113.212 152.326 126.808C151.39 126.526 150.451 126.245 149.516 125.964C152.795 112.931 156.072 99.8954 159.352 86.8626C158.798 85.8753 158.304 84.75 157.947 83.487C155.994 76.5641 159.532 70.277 160.757 68.2966C161.6 68.7664 162.444 69.2334 163.287 69.7031Z" fill="white"/>
<path d="M140.804 61.2639H136.588C136.787 62.7576 137.237 64.7464 138.274 66.89C140.295 71.0617 143.395 73.4218 145.019 74.4852C146.051 72.6089 147.079 70.7354 148.111 68.8591C146.638 67.4666 145.132 65.9673 143.614 64.3582C142.63 63.3146 141.694 62.2822 140.804 61.2639Z" fill="#15193A"/>
<path d="M148.11 68.8591C149.42 68.5806 150.732 68.2993 152.045 68.0152C154.206 67.5482 156.362 67.0812 158.509 66.6086L161.038 68.2965C160.322 69.5736 157.995 73.3262 153.45 74.7664C152.093 75.1968 150.834 75.3262 149.797 75.329C149.235 73.1714 148.672 71.0167 148.11 68.8591Z" fill="#15193A"/>
<path d="M107.359 59.2947C111.482 55.7306 115.602 52.1693 119.725 48.6052L128.156 61.2639C128.112 62.901 127.76 68.2486 123.66 72.516C122.002 74.2404 120.228 75.2728 118.882 75.8916C117.013 73.9788 114.981 71.6468 112.98 68.859C110.51 65.4187 108.694 62.1303 107.359 59.2947Z" fill="#15193A"/>
<path d="M164.692 70.8282C164.071 71.9477 162.584 74.983 163.006 78.9859C163.318 81.9565 164.54 84.1028 165.254 85.1746C170.968 83.4868 176.684 81.799 182.398 80.1112C180.338 75.2362 178.275 70.3584 176.215 65.4834C172.373 67.264 168.534 69.0475 164.692 70.8282Z" fill="#15193A"/>
<path d="M149.516 35.3842C148.954 35.747 147.357 37.1057 148.111 42.698C148.066 42.4336 147.984 42.037 147.83 41.5728C147.548 40.7317 147.31 40.0257 146.705 39.6037C146.154 39.2183 145.351 39.1058 144.738 39.3224C142.816 40.0003 142.771 43.9217 142.771 44.3859C142.768 47.2523 144.151 49.4465 145.019 50.5745C144.761 54.5071 145.339 57.6043 145.862 59.5762C146.821 63.1938 147.79 66.8648 150.921 68.2966C152.995 69.2446 155.069 68.7805 155.98 68.5779C157.736 68.1841 159.563 67.2727 163.568 62.9519C164.096 62.3836 170.274 55.6267 172.28 48.8867C172.553 47.9697 172.893 46.5716 172.28 45.2298C171.608 43.7586 170.136 43.1144 169.189 42.698C166.271 41.4153 163.475 39.84 160.476 38.7598C152.158 35.7639 150.941 34.4615 149.516 35.3842Z" fill="#F4B79D"/>
<path d="M152.382 47.6038C153.709 48.7656 155.035 49.9217 156.491 50.926C159.824 53.2299 163.54 54.3551 167.553 54.5773C170.229 54.7264 172.873 54.5042 175.476 53.8318C175.824 53.7418 176.156 53.5984 176.468 53.4155C177.597 52.7545 177.971 51.8768 177.446 50.6869C176.622 48.8218 175.97 46.8668 174.697 45.2268C174.54 45.0242 174.579 44.847 174.658 44.636C176.833 38.7034 175.065 31.4992 170.4 27.2571C169.63 26.5567 168.79 25.966 167.817 25.6031C166.645 25.1699 165.619 24.4582 164.501 23.9265C161.255 22.3737 157.958 21.8111 154.563 23.4736C154.122 23.6902 153.681 23.8562 153.164 23.8534C152.391 23.8477 151.758 24.2219 151.196 24.7282C151.045 24.8661 150.873 25.0545 150.913 25.2205C151.022 25.6959 150.665 25.845 150.407 26.0588C148.161 27.8901 146.458 30.1292 145.345 32.8072C145.252 33.0295 145.151 33.1448 144.893 33.1533C142.625 33.218 141.908 35.1814 142.554 37.0127C142.847 37.8426 143.386 38.5261 143.962 39.1788C144.179 39.4235 144.395 39.6682 144.612 39.913C145.573 40.8638 146.525 41.8258 147.411 42.847C148.144 43.5108 148.85 44.2 149.51 44.937C150.53 45.7584 151.438 46.7036 152.388 47.601L152.382 47.6038Z" fill="#FBC966"/>
<path d="M117.477 212.051C117.488 204.996 118.989 201.761 119.433 200.855C119.849 200.008 120.259 199.342 120.552 198.897C122.044 199.176 123.533 199.457 125.026 199.735C124.281 207.48 123.533 215.221 122.789 222.966C121.296 222.406 119.807 221.846 118.314 221.286C117.632 217.556 117.471 214.386 117.477 212.051Z" fill="#FBC966"/>
<path d="M124.748 199.738C126.015 197.145 127.434 195.221 127.822 194.7C131.282 190.09 135.143 187.654 137.33 186.303C146.239 180.798 156.37 180.022 159.979 179.867C156.989 186.689 152.18 199.688 151.871 215.691C151.624 228.535 154.364 238.769 154.946 240.879C155.651 243.43 156.362 245.535 156.902 247.037C154.87 246.615 151.969 245.973 148.513 245.079C138.538 242.497 133.474 241.138 129.778 237.802C126.319 234.679 124.995 231.121 123.626 227.447C119.99 217.683 121.08 207.241 124.745 199.741L124.748 199.738Z" fill="#FBC966"/>
<path d="M159.976 179.867L163.332 178.188C166.314 178.281 169.295 178.373 172.28 178.466C170.802 180.781 168.773 184.295 166.968 188.821C165.543 192.394 162.272 201.584 162.775 225.483C162.904 231.635 163.306 239.852 164.453 249.552C161.749 248.713 159.049 247.872 156.345 247.034C152.953 237.838 147.546 218.85 153.27 196.937C155.016 190.256 157.469 184.554 159.982 179.864L159.976 179.867Z" fill="#F4C064"/>
<path d="M172.561 178.286C173.275 178.286 174.29 178.385 175.372 178.849C178.104 180.025 179.453 182.784 180.431 185.6C182.477 191.485 182.614 196.776 182.679 200.228C182.89 211.379 182.994 216.954 182.96 217.95C182.389 235.157 180.217 240.215 178.744 242.986C176.26 247.653 173.896 249.315 171.718 250.018C168.826 250.952 166.126 250.249 164.692 249.737C161.008 238.305 154.701 212.661 166.66 188.132C168.424 184.509 170.431 181.237 172.561 178.286Z" fill="#DBAD5D"/>
<path d="M172.983 209.511C174.302 209.511 175.371 206.992 175.371 203.885C175.371 200.777 174.302 198.259 172.983 198.259C171.663 198.259 170.594 200.777 170.594 203.885C170.594 206.992 171.663 209.511 172.983 209.511Z" fill="#FBC966"/>
<path d="M172.983 231.734C174.302 231.734 175.371 229.215 175.371 226.108C175.371 223.001 174.302 220.482 172.983 220.482C171.663 220.482 170.594 223.001 170.594 226.108C170.594 229.215 171.663 231.734 172.983 231.734Z" fill="#FBC966"/>
</svg>
