<svg width="47" height="48" viewBox="0 0 47 48" fill="none" xmlns="http://www.w3.org/2000/svg">
<path d="M27.6277 25.1544C25.6073 26.1824 24.6883 28.1293 24.6883 30.3105V38.3104C24.6883 38.8952 24.7214 39.4438 24.7965 39.9548H3.79992C1.42219 39.9548 0 38.8436 0 36.9992C0 31.2659 7.17764 23.355 18.6885 23.355C22.0709 23.355 25.0787 24.0356 27.6277 25.1544ZM27.5994 9.55537C27.5994 15.1108 23.4661 19.3774 18.7108 19.3774C13.933 19.3774 9.82203 15.1108 9.82203 9.59982C9.82203 4.15548 13.9552 0 18.7108 0C23.4661 0 27.5994 4.06659 27.5994 9.55537Z" fill="#303030"/>
<path d="M38.399 25.2448C39.6657 25.6893 43.7766 27.156 45.0878 27.6892C46.399 28.2447 46.8877 29.0892 46.8877 30.3781V38.3778C46.8877 42.6444 44.3765 44.1778 38.3323 47.7332C37.6436 48.1332 36.7991 48.0444 36.2656 47.7332C30.2213 44.1778 27.7104 42.6444 27.7104 38.3778V30.3781C27.7104 29.0892 28.2214 28.2447 29.5326 27.6892C30.8213 27.156 34.9324 25.7338 36.0214 25.3338C36.8436 25.0003 37.6658 25.0003 38.399 25.2448ZM35.4434 41.8667C35.4434 42.9111 36.2879 43.7556 37.3101 43.7556C38.3545 43.7556 39.1767 42.9111 39.199 41.8667C39.199 40.8667 38.3545 40 37.3101 40C36.2879 40 35.4434 40.8667 35.4434 41.8667ZM35.7991 30.8226L35.9769 37.1556C35.9991 37.9336 36.5323 38.4668 37.3101 38.4668C38.0878 38.4668 38.6435 37.9336 38.6658 37.1556L38.8435 30.8226C38.8658 29.9114 38.2435 29.2892 37.3101 29.2892C36.3769 29.2892 35.7769 29.9114 35.7991 30.8226Z" fill="#303030"/>
</svg>
