<svg width="750" height="750" viewBox="0 0 750 750" fill="none" xmlns="http://www.w3.org/2000/svg">
<style>
  .gd-primary {
    fill: #F36E25;
  }
  .gd-secondary {
    fill: #212222;
  }
  .gd-tertiary {
    fill: #F5E6C5;
  }
  @media (prefers-color-scheme: dark) {
    .gd-primary {
      fill: #F9C87D;
    }
    .gd-secondary {
      fill: #BECEB5;
    }
    .gd-tertiary {
      fill: #0B211E;
    }
  }
</style>
<rect class="gd-tertiary" width="750" height="750" rx="375"/>
<path class="gd-primary" d="M175.115 471.938C185.899 465.113 189.736 451.369 185.619 439.288C170.914 396.146 171.821 350.335 186.209 309.087C190.408 297.051 186.677 283.298 175.964 276.389C163.367 268.264 146.396 272.789 141.114 286.817C120.441 341.721 119.092 403.599 140.365 461.249C145.548 475.295 162.464 479.946 175.115 471.938Z"/>
<path class="gd-primary" d="M280.896 576.204C287.563 565.337 301.23 561.297 313.358 565.225C363.739 581.541 420.464 577.935 470.642 550.606C567.626 497.785 603.428 376.343 550.606 279.358C548.97 276.355 547.269 273.411 545.504 270.526C538.853 259.651 539.587 245.421 548.59 236.397C559.18 225.783 576.728 226.607 584.86 239.204C588.25 244.455 591.469 249.87 594.507 255.448C660.535 376.678 615.783 528.481 494.552 594.508C429.883 629.729 356.514 633.428 292.107 610.81C277.964 605.844 273.059 588.981 280.896 576.204Z"/>
<path class="gd-secondary" d="M269.362 233.3C262.76 221.177 267.233 205.998 279.358 199.394C344.243 164.055 420.077 168.383 478.983 204.161C489.887 210.782 504.124 210.017 513.127 200.982C523.707 190.365 522.839 172.825 510.228 164.727C435.887 117.016 338.493 110.263 255.447 155.493C219.077 175.301 205.653 220.841 225.461 257.211C245.269 293.58 290.809 307.005 327.179 287.197C375.67 260.787 436.392 278.687 462.803 327.179C489.214 375.671 471.312 436.393 422.821 462.803C374.331 489.212 313.608 471.313 287.197 422.821C278.7 407.22 274.792 390.351 275.01 373.769C275.167 361.874 269.886 349.981 259.266 344.624C244.853 337.357 227.202 344.869 225.675 360.936C222.944 389.662 228.455 419.484 243.295 446.731C244.853 449.592 246.491 452.381 248.204 455.099C250.804 459.223 250.386 464.637 246.944 468.09L198.5 516.703C188.758 526.48 188.785 542.306 198.562 552.051C208.343 561.794 224.169 561.766 233.911 551.989L282.338 503.393C285.781 499.939 291.196 499.504 295.331 502.091C339.743 529.874 397.446 533.547 446.732 506.704C519.471 467.087 546.321 376.007 506.705 303.268C467.089 230.53 376.008 203.679 303.268 243.296C291.144 249.899 275.965 245.423 269.362 233.3Z"/>
<path class="gd-primary" d="M398.91 418.901C374.664 432.107 344.303 423.157 331.098 398.91C317.892 374.664 326.842 344.304 351.089 331.099C375.335 317.893 405.695 326.843 418.901 351.089C432.106 375.336 423.156 405.696 398.91 418.901Z"/>
</svg>
