<svg width="339" height="89" viewBox="0 0 339 89" fill="none" xmlns="http://www.w3.org/2000/svg">
<path d="M77.1889 19.2504C76.7309 19.2504 76.0749 19.2504 75.7139 18.5314C75.4179 17.9414 75.5179 16.9904 74.9609 16.5654C75.5179 16.7284 76.1069 16.7284 76.5649 16.7284C78.0409 16.7284 79.4509 15.7134 80.5329 15.7134C81.2459 15.7134 81.4759 16.1724 81.4759 16.6294C81.4769 18.0724 78.5669 19.2504 77.1889 19.2504ZM77.9089 22.9514C81.3119 22.9514 84.4279 20.2334 84.4279 17.8434C84.4279 16.7284 83.9019 15.8124 82.5589 15.6484C82.7879 15.9434 82.8859 16.1724 82.8859 16.6964C82.8859 18.4984 80.1409 20.4964 77.1569 20.4964C76.0749 20.4964 75.7469 21.2484 75.7469 21.6414C75.7469 22.5594 76.6329 22.9514 77.9089 22.9514ZM77.6479 24.3274C78.0749 27.4374 82.7879 31.6304 84.0649 31.5314C84.9189 31.4594 85.2459 27.4704 85.2459 24.3274C85.2459 22.5264 85.3449 21.1174 84.3939 20.7894C82.8849 23.8364 78.9269 24.4584 77.6479 24.3274Z" fill="#1766A6"/>
<path d="M3.93359 44.9307C5.04559 44.9307 4.81659 38.1177 6.61759 38.1177C7.04459 38.1177 7.17559 38.5437 7.17559 39.0677C7.17559 40.6067 6.42159 42.8677 6.42159 44.1107C6.42159 44.7337 6.58559 44.9307 6.88059 44.9307C7.66759 44.9307 9.04259 37.4297 10.3846 37.4297C10.8106 37.4297 11.0066 37.8557 11.0066 38.2817C11.0066 39.8537 9.01059 44.3727 9.01059 45.6497C9.01059 45.8467 9.07459 46.0097 9.23959 46.0097C10.0586 46.0097 11.6956 42.4737 12.2186 40.7057C12.5136 39.7877 12.9066 39.2957 13.2676 39.2957C13.5946 39.2957 13.8906 39.6567 13.8906 40.4107C13.8906 42.1787 12.2516 46.3377 10.8106 49.1227C9.69859 51.2837 7.96259 54.3927 7.96259 56.1287C7.96259 57.0137 8.12359 57.9297 9.40159 59.0437C7.30559 58.9127 6.45459 58.7167 5.66959 57.0797C2.16459 64.0547 12.1206 63.3677 8.71459 69.5547C8.09159 68.4437 3.18059 67.2967 3.18059 60.8127C3.18059 55.2127 8.09159 51.9377 8.09159 49.6137C8.09159 49.1557 7.92959 48.7627 7.50359 48.4027C6.42159 47.4837 6.38859 46.7327 5.53759 46.7327C4.91659 46.7327 4.16059 48.1727 4.94759 49.4497C5.21059 49.8757 5.43959 50.1377 5.43959 50.5307C5.43959 51.4467 3.99759 53.9017 2.98359 53.9017C1.96759 53.9017 1.18359 51.3837 1.18359 47.3207C1.18359 43.7167 2.00059 40.0837 3.01659 40.0837C3.31059 40.0837 3.40859 40.2797 3.40859 40.5427C3.40859 40.9687 3.27859 41.8187 3.27859 43.2597C3.27859 44.7987 3.63859 44.9307 3.93359 44.9307Z" fill="#1766A6"/>
<path d="M12.2817 54.5234C13.6587 54.5234 14.8037 53.5064 14.8037 51.2504V47.9084C14.8037 46.6314 14.9027 45.1914 15.7547 44.1744C15.6557 44.6014 15.6557 45.0594 15.6557 45.4854C15.6557 48.3024 17.2267 50.2354 17.2267 52.9524C17.2267 53.9664 16.9317 54.5244 16.1477 54.5244C15.3937 54.5244 15.4597 53.8364 15.2947 53.8364C15.1647 53.8364 14.9677 54.2614 14.9677 54.7204C14.9677 55.4084 15.4587 56.4884 16.8337 56.4884C18.0137 56.4884 18.9617 55.4084 18.9617 54.1964C18.9617 51.2514 16.6697 47.9744 16.6697 44.8314C16.6697 43.4554 17.0297 42.5394 17.3247 41.8174C17.3247 48.3354 22.8587 53.0834 22.8587 55.8004C22.8587 56.4234 22.4007 56.9154 21.7127 56.9154C20.9597 56.9154 20.5987 56.3244 20.5987 55.8654C20.5987 55.6364 20.5657 55.5714 20.4677 55.5714C20.2727 55.5714 19.6827 56.2264 19.6827 57.0794C19.6827 58.1584 20.5657 59.4704 22.2037 59.4704C24.0687 59.4704 25.0847 57.8964 25.0847 56.4884C25.0847 53.0514 18.3717 47.8434 18.3717 42.2774C18.3717 41.3264 18.5337 39.7874 19.2237 38.6094C14.9007 41.3914 13.5587 45.0934 13.5587 48.3354C13.5587 51.1524 13.4607 52.5584 12.0197 52.5584C11.2657 52.5584 11.0697 51.8724 10.8067 51.8724C10.6107 51.8724 10.5117 52.4614 10.5117 52.6244C10.5137 53.8354 11.3987 54.5234 12.2817 54.5234Z" fill="#1766A6"/>
<path d="M61.8962 17.6502C62.3122 17.3712 64.1582 17.8132 66.5452 16.6332C66.8392 16.4722 67.1342 16.4062 67.3962 16.4062C68.5442 16.4062 68.2492 17.7153 69.2982 17.7153C70.1152 17.7153 71.1662 17.0273 71.7892 17.0273C72.7652 17.0273 74.1742 20.1063 74.1742 21.5473C74.1742 23.2173 71.6572 24.2332 68.6752 24.2332C64.3222 24.2332 61.6992 20.4342 61.6992 17.9772C61.7002 17.7812 61.7992 17.7152 61.8962 17.6502ZM69.0362 21.8092C70.4782 21.8092 71.5592 21.1543 71.5592 20.7603C71.5592 20.6313 71.3632 20.5322 70.9362 20.5322C70.5102 20.5322 69.6582 20.5002 68.0522 20.2372C66.6742 20.0082 65.6262 19.4842 65.2332 19.4842C65.1022 19.4842 65.0362 19.5492 65.0362 19.6472C65.0362 20.5002 66.6102 21.8092 69.0362 21.8092Z" fill="#1766A6"/>
<path d="M12.9733 66.8736C11.8933 67.1366 10.1562 68.8366 10.1562 71.5256C10.1562 74.7326 13.5953 79.6796 19.2603 79.6796C24.0403 79.6796 25.2202 76.3716 25.2202 74.1426C25.2202 69.1986 22.1763 65.7266 18.2143 65.7266C16.0523 65.7266 14.1193 67.2986 14.1193 69.6226C14.1193 71.7866 15.7572 75.0276 19.6532 75.0276C21.4872 75.0276 22.5673 73.7156 22.5673 72.2136C22.5673 70.7386 21.2253 68.7096 19.2593 68.7096C18.6703 68.7096 18.2453 69.0986 18.2453 69.7236C18.2453 70.5076 19.3243 71.2956 20.6683 71.2956C20.9943 71.2956 21.2572 71.2296 21.3892 71.1636C21.4532 71.2646 21.4873 71.4266 21.4873 71.5576C21.4873 72.3116 20.7662 72.7706 19.6532 72.7706C17.9832 72.7706 16.3783 71.5266 16.3783 69.5576C16.3783 68.3816 17.3943 67.5306 18.8673 67.5306C21.7813 67.5306 23.5163 70.1166 23.5163 72.7056C23.5163 75.0286 22.2413 76.3736 19.6203 76.3736C14.3803 76.3726 11.8283 71.6556 12.9733 66.8736Z" fill="#1766A6"/>
<path d="M50.3521 86.0577C51.9231 86.0577 51.8411 85.9268 52.3331 85.9268C52.8231 85.9268 52.8571 86.2217 52.8571 86.4187C52.8571 87.1397 51.2511 88.0238 48.4021 88.0238C46.7321 88.0238 45.7161 87.1387 45.4221 86.1567C43.7851 87.2047 41.2971 88.1547 38.8401 88.1547C32.1281 88.1547 30.4251 85.2377 28.3281 84.2907C26.7231 83.5697 24.2671 84.9788 20.8281 81.1468C21.2871 81.2458 21.9101 81.2777 22.4011 81.2777C25.4121 81.2777 27.0171 79.8067 27.0171 77.4467C27.0171 77.1507 26.9841 76.8267 26.9511 76.5327C27.8691 76.8927 29.9661 78.4628 30.4581 81.2458C30.5221 81.5738 31.8641 81.8677 32.7161 81.8677C33.8961 81.8677 35.4021 81.3757 35.6311 79.4457C39.5611 79.1187 42.2151 76.7947 42.7721 73.8438C44.1781 74.3027 45.7831 75.5797 46.1761 76.2367C46.7331 76.0407 47.3871 75.9417 48.1401 75.9417C49.1881 75.9417 50.3681 76.1388 51.7751 76.5648C51.8411 76.1388 51.9061 75.6147 52.5621 75.6147C53.5441 75.6147 53.2821 76.6958 53.6101 77.3148C53.7741 77.6428 54.5941 77.8388 54.5941 78.4948C54.5941 79.1188 54.0671 79.3487 53.7401 79.3487C53.6091 79.3487 53.4451 79.3157 53.3461 79.2837C52.6921 79.5127 52.6581 84.2257 49.9081 84.2257C47.8791 84.2257 46.0121 82.5557 45.1921 80.4617C44.9631 79.8397 44.4721 79.4457 44.0131 79.4457C43.4901 79.4457 43.1951 79.5447 42.5741 80.2327C40.8061 82.1627 37.8581 83.8327 34.2231 83.8327C33.1091 83.8327 32.2251 83.7327 31.9951 83.7327C31.8631 83.7327 31.8631 83.7657 31.8631 83.7977C31.8631 84.0277 32.9761 84.9128 35.4001 84.9128C41.1641 84.9128 42.5731 81.6697 43.4891 81.6697C43.6221 81.6697 44.0121 81.6697 44.2411 82.1947C45.5861 85.3367 48.5181 86.0577 50.3521 86.0577ZM47.8131 79.5127C47.8131 80.2337 48.4031 80.8237 49.1241 80.8237C49.8451 80.8237 50.4341 80.2337 50.4341 79.5127C50.4341 78.7907 49.8451 78.2007 49.1241 78.2007C48.4031 78.2007 47.8131 78.7907 47.8131 79.5127Z" fill="#1766A6"/>
<path d="M73.7484 63.1661C73.2894 63.1661 72.7984 63.5271 72.7984 64.4131C72.7984 65.3921 73.5524 66.0161 73.9774 66.2111C74.2074 66.3441 74.5684 66.4751 74.9254 66.4751C75.8764 66.4751 76.6314 66.2111 76.6314 65.4241C76.6304 64.4131 75.1544 63.1661 73.7484 63.1661ZM70.2154 65.1951C69.5274 65.1951 65.7234 70.2711 63.2724 70.2711C62.6834 70.2711 62.1914 69.1581 62.1914 68.3101C62.1914 67.8511 62.4854 67.5231 63.5364 67.2921C69.1674 66.0151 67.9214 61.7891 72.7314 61.7891C75.3834 61.7891 78.3354 63.5931 78.3354 67.6521C78.3354 71.9751 72.1824 77.3441 71.2644 77.3441C70.5104 77.3441 69.6914 76.2641 69.6914 75.5441C69.6914 75.3151 69.7904 75.0201 70.4454 74.7581C73.5854 73.5121 75.3844 70.6311 75.3844 69.1561C75.3844 68.8281 75.2214 68.5041 74.7954 68.5041C74.2394 68.5041 71.8554 73.9381 69.1994 73.9381C67.3624 73.9381 65.4944 72.2721 65.4944 71.4841C65.4944 70.1721 70.8054 67.7511 70.8054 65.9151C70.8044 65.2261 70.4774 65.1951 70.2154 65.1951Z" fill="#1766A6"/>
<path d="M5.40634 22.2705C5.40634 22.2705 4.45734 22.9895 3.27834 22.9895C1.87134 22.9895 0.757343 21.9425 0.757343 20.4685C0.757343 19.4525 1.28134 18.4055 2.49234 17.8805C2.46034 18.0775 2.46034 18.2405 2.46034 18.4375C2.45934 20.3055 3.50734 21.7125 5.40634 22.2705ZM12.4143 28.5585C11.6943 29.4085 10.9403 30.8505 10.9403 32.3235C10.9403 34.0915 12.0223 35.5645 13.6923 35.5645C15.2963 35.5645 16.0503 34.1895 16.0503 32.7825C16.0503 30.5885 14.0523 29.0475 12.4143 28.5585ZM1.54334 29.8675C1.48134 29.9685 1.44434 30.0975 1.44434 30.2285C1.44434 30.5235 1.77234 30.8505 2.06534 30.8505C2.32734 30.8505 2.49134 30.7855 2.62234 30.7855C3.40734 30.7855 4.29234 31.3415 5.56934 31.3415C6.32134 31.3415 7.20634 31.1115 8.31934 30.5565C10.6773 29.3765 11.5953 26.4625 11.5953 25.9705C11.5953 25.3475 11.0953 25.4295 10.6773 24.8565C10.2593 24.2855 10.4193 23.7805 10.1533 23.5135C10.0023 23.3605 9.53234 23.3505 8.94134 23.2845C8.74434 23.2635 8.48234 23.2515 8.22034 23.2515C7.14134 23.2515 5.86034 23.3845 4.42234 24.3005C1.58234 26.1135 2.00034 29.1145 1.54334 29.8675ZM9.23834 25.8065C9.46534 26.1155 10.0913 26.4955 10.0913 26.7245C10.0913 27.1815 9.82734 27.7725 9.30434 27.7725C8.15734 27.7725 7.24134 26.0365 7.24134 25.0525C7.24134 24.4315 7.60234 24.3665 8.09234 24.3665C8.32134 24.3665 8.42034 24.3995 8.58334 24.4975C8.87734 24.6615 8.87734 25.3155 9.23834 25.8065ZM6.22434 29.8025C5.14434 29.8025 3.96534 28.4605 3.96534 27.2475C3.96534 26.5935 4.45634 25.7735 4.81634 25.7735C4.94734 25.7735 5.01334 25.8725 5.04534 26.1025C5.24134 27.7065 6.29034 28.6245 7.27334 29.0815C7.37134 29.1465 7.43734 29.1795 7.43734 29.2445C7.43734 29.4745 6.81434 29.8025 6.22434 29.8025ZM9.00934 21.5495C9.17234 21.0245 9.30334 20.3715 9.30334 19.6495C9.30334 18.0785 8.58134 15.6875 6.35534 15.6875C5.07934 15.6875 4.16034 16.7025 4.16034 17.9145C4.16034 20.5025 6.74834 21.5495 9.00934 21.5495ZM0.527344 34.6485C0.527344 37.1365 1.28134 38.3165 2.62334 38.3165C3.67134 38.3165 5.07934 37.5625 6.74834 36.1215C5.47234 36.4165 4.48834 36.6135 3.60534 36.6135C2.42634 36.6135 1.51034 36.1545 0.527344 34.6485ZM1.67434 31.7335C1.64234 31.8985 1.64234 32.0615 1.64234 32.2245C1.64234 33.7635 2.45934 34.6155 3.54034 34.6155C4.35634 34.6155 5.30834 34.1245 6.15734 33.0425C5.79934 33.1075 5.37234 33.1405 4.97934 33.1405C3.76934 33.1405 2.45934 32.8145 1.67434 31.7335ZM9.69734 31.2755C8.94234 31.4715 7.37134 32.3885 7.37134 34.0255C7.37134 35.2035 8.28734 35.9585 9.43434 35.9585C10.0243 35.9585 10.4493 35.8265 10.7113 35.6305C9.79534 34.7465 9.46734 33.7635 9.46734 32.7825C9.46734 32.0935 9.56534 31.6685 9.69734 31.2755ZM10.8753 22.3025C10.8753 23.0225 11.4643 23.6135 12.1843 23.6135C12.9053 23.6135 13.4953 23.0235 13.4953 22.3025C13.4953 21.5825 12.9053 20.9915 12.1843 20.9915C11.4643 20.9915 10.8753 21.5825 10.8753 22.3025ZM12.5773 25.2495C12.5773 25.9705 13.1683 26.5605 13.8903 26.5605C14.6093 26.5605 15.1993 25.9705 15.1993 25.2495C15.1993 24.5305 14.6093 23.9405 13.8903 23.9405C13.1673 23.9405 12.5773 24.5305 12.5773 25.2495Z" fill="#1766A6"/>
<path d="M63.6686 41.3272C63.6686 40.6732 64.2586 40.1162 64.9056 40.1162C65.6276 40.1162 66.1846 40.6732 66.1846 41.3272C66.1846 42.0802 65.6266 42.6052 64.9056 42.6052C64.2586 42.6052 63.6686 42.0802 63.6686 41.3272ZM52.1706 31.2412C52.1706 31.9612 52.7616 32.5512 53.4796 32.5512C54.2026 32.5512 54.7926 31.9612 54.7926 31.2412C54.7926 30.5222 54.2016 29.9322 53.4796 29.9322C52.7616 29.9322 52.1706 30.5222 52.1706 31.2412ZM51.0586 35.8582C51.0586 36.8742 51.9076 37.7242 52.9246 37.7242C53.9386 37.7242 54.7926 36.8742 54.7926 35.8582C54.7926 34.8442 53.9386 33.9912 52.9246 33.9912C51.9076 33.9912 51.0586 34.8442 51.0586 35.8582ZM55.1856 33.7622C55.1856 34.8772 56.0706 35.7602 57.1776 35.7602C58.2906 35.7602 59.1786 34.8772 59.1786 33.7622C59.1786 32.6492 58.2906 31.7652 57.1776 31.7652C56.0706 31.7652 55.1856 32.6492 55.1856 33.7622ZM55.3506 29.5052C55.3506 30.1942 55.9076 30.7522 56.5886 30.7522C57.2766 30.7522 57.8336 30.1942 57.8336 29.5052C57.8336 28.8192 57.2756 28.2622 56.5886 28.2622C55.9076 28.2622 55.3506 28.8192 55.3506 29.5052ZM61.2756 26.3632C61.2756 27.0492 61.8326 27.6062 62.5216 27.6062C63.2096 27.6062 63.7676 27.0492 63.7676 26.3632C63.7676 25.6742 63.2096 25.1172 62.5216 25.1172C61.8326 25.1172 61.2756 25.6742 61.2756 26.3632ZM58.8176 30.3912C58.8176 31.5362 59.7676 32.4852 60.9146 32.4852C62.0626 32.4852 63.0136 31.5362 63.0136 30.3912C63.0136 29.2432 62.0636 28.2952 60.9146 28.2952C59.7676 28.2952 58.8176 29.2432 58.8176 30.3912ZM55.4476 38.0532C55.4476 38.7742 56.0376 39.3622 56.7526 39.3622C57.4736 39.3622 58.0646 38.7742 58.0646 38.0532C58.0646 37.3322 57.4736 36.7432 56.7526 36.7432C56.0376 36.7432 55.4476 37.3322 55.4476 38.0532ZM59.7356 35.4322C59.7356 36.1532 60.3246 36.7432 61.0476 36.7432C61.7676 36.7432 62.3576 36.1532 62.3576 35.4322C62.3576 34.7132 61.7676 34.1232 61.0476 34.1232C60.3246 34.1232 59.7356 34.7132 59.7356 35.4322ZM58.5236 40.0502C58.5236 41.2942 59.5386 42.3102 60.7846 42.3102C62.0296 42.3102 63.0476 41.2942 63.0476 40.0502C63.0476 38.8062 62.0296 37.7902 60.7846 37.7902C59.5386 37.7902 58.5236 38.8062 58.5236 40.0502ZM63.2416 37.2652C63.2416 38.1182 63.9306 38.8062 64.7766 38.8062C65.6286 38.8062 66.3166 38.1182 66.3166 37.2652C66.3166 36.4152 65.6286 35.7272 64.7766 35.7272C63.9306 35.7272 63.2416 36.4152 63.2416 37.2652ZM63.1436 33.1392C63.1436 33.8942 63.7676 34.5162 64.5126 34.5162C65.2676 34.5162 65.8906 33.8942 65.8906 33.1392C65.8906 32.3872 65.2676 31.7652 64.5126 31.7652C63.7676 31.7652 63.1436 32.3872 63.1436 33.1392Z" fill="#1766A6"/>
<path d="M66.4811 76.1081C65.6291 76.7641 63.6371 78.2351 60.3261 78.2351C58.5571 78.2351 57.7701 77.6781 57.5081 77.6781C57.1801 77.6781 56.8201 78.0051 56.4591 78.4321C55.6811 79.3501 54.6641 81.0531 54.6641 82.9181C54.6641 84.2271 55.6811 85.5351 57.5731 85.5351C63.7031 85.5351 68.2841 81.7051 68.2841 78.5961C68.2841 76.8291 67.2361 76.1081 66.4811 76.1081ZM64.7781 75.7481C65.0431 75.5221 65.1051 75.1591 65.1051 74.7971V74.0441C65.1051 73.0931 63.6701 72.5391 61.7031 72.5391C59.3101 72.5391 58.0321 73.6171 58.0321 74.0771V75.5831C58.0321 76.2071 59.4751 76.8291 61.2451 76.8291C62.6541 76.8291 63.9321 76.4691 64.7781 75.7481ZM64.5141 78.9901C64.6791 78.9901 64.8741 79.0871 64.8741 79.6781C64.8741 80.3971 64.5481 81.3461 63.3741 82.0981C62.5551 82.6571 61.4401 83.1161 59.8021 83.1451C60.0641 82.3621 60.2611 81.5411 60.2611 80.7591C60.2611 80.4961 60.2291 80.2991 60.1961 80.0051H60.6221C63.2111 80.0061 64.3261 78.9901 64.5141 78.9901Z" fill="#1766A6"/>
<path d="M52.005 38.9688C52.365 41.7508 56.102 40.3427 56.102 43.7147C56.102 44.2067 55.971 44.9287 55.971 45.5497C55.971 46.2707 56.035 46.8927 56.587 46.8927C57.143 46.8927 57.275 46.5007 57.275 45.9757C57.275 45.4507 57.143 44.7967 57.143 44.4367C57.143 43.2897 57.963 43.0287 58.456 43.0287C59.701 43.0287 60.651 44.3057 62.52 44.3057C62.093 46.4017 57.767 45.8447 57.767 48.1377C57.767 49.2847 58.914 49.5448 59.668 49.5448C60.356 49.5448 60.586 49.4467 60.586 48.8587C60.586 48.5297 60.52 48.1698 60.52 47.9408C60.52 47.8088 60.619 47.6777 60.783 47.6777C61.506 47.6777 65.036 50.3638 65.036 51.1838C65.036 51.9358 61.307 52.6887 60.226 52.6887C59.898 52.6887 59.832 52.4598 59.832 52.3288C59.832 52.0998 60.389 51.4117 60.389 51.0197C60.389 50.7247 59.898 50.5277 58.586 50.5277C57.963 50.5277 57.504 50.5938 57.504 51.0858C57.504 51.9678 58.946 53.0497 58.946 53.8667C58.946 54.5227 58.553 54.9157 57.504 54.9157C56.619 54.9157 55.281 54.2267 55.281 53.0817C55.281 52.1647 56.226 51.2497 56.226 50.6917C56.226 50.5277 56.101 50.2657 55.708 50.2657C54.494 50.2657 54.167 53.4737 49.875 53.8347C50.563 53.2127 51.151 52.5247 51.151 51.1187C51.151 50.4307 50.989 49.8728 50.989 49.1208C50.989 48.1378 51.446 47.6457 52.101 47.6457C53.312 47.6457 53.902 49.3477 54.691 49.3477C55.118 49.3477 55.576 48.9567 55.576 48.3667C55.576 45.8777 50.793 46.2377 50.793 42.7337C50.794 41.7837 51.12 40.6048 52.005 38.9688ZM67.625 48.5637C67.625 49.3807 67.889 50.3307 68.708 50.3307C69.396 50.3307 69.985 49.2847 69.985 48.1377C69.985 46.8277 69.756 45.8117 69.756 45.2867C69.756 45.0587 69.855 44.9608 69.985 44.9608C70.477 44.9938 70.935 46.3358 71.461 46.3358C72.051 46.3358 72.93 45.2537 73.289 45.2537C73.388 45.2537 73.42 45.3857 73.42 45.4177C73.42 45.9097 72.666 46.9917 72.666 47.4167C72.666 47.7767 74.567 47.8418 74.567 48.1698C74.567 48.6618 72.574 48.6617 71.625 49.0877C70.708 49.4797 70.148 49.9707 70.148 50.6267C70.148 51.2817 70.804 51.4117 71.722 51.4117C73.91 51.4117 75.45 50.2337 75.941 50.2337C76.039 50.2337 76.104 50.2977 76.104 50.3967C76.104 50.7247 74.991 51.8047 74.991 52.2967C74.991 52.8527 77.023 53.5057 76.99 53.8347C76.958 53.9327 76.826 53.9647 76.597 53.9647C76.235 53.9647 75.679 53.8667 75.252 53.8667C74.99 53.8667 74.761 53.8987 74.661 54.0297C74.434 54.2927 74.727 56.0287 74.271 56.0287C73.844 56.0287 72.73 52.1647 70.214 52.1647C69.853 52.1647 69.591 52.4597 69.591 52.9507C69.591 54.2597 70.869 55.7657 72.082 56.4867C72.631 56.8477 73.55 57.2078 73.55 57.4058C73.55 57.7968 71.459 57.4377 71.459 58.0917C71.459 58.6817 71.721 59.5677 71.721 60.0897C71.721 60.2537 71.688 60.4487 71.492 60.4487C71.099 60.4487 70.147 58.6488 69.689 58.6488C69.296 58.6488 68.444 59.7287 68.083 59.7287C67.985 59.7287 67.92 59.6307 67.92 59.5337C67.92 58.7797 69.133 57.0777 69.133 55.4067C69.133 54.6207 69.034 52.9177 68.083 52.9177C67.297 52.9177 66.411 54.1617 66.018 55.4067C65.79 56.1267 65.953 58.9107 65.428 58.9107C64.937 58.9107 65.068 57.0448 64.411 57.0448C63.928 57.0448 62.879 57.9277 62.518 57.9277C62.452 57.9277 62.386 57.8948 62.386 57.8298C62.386 57.4378 63.337 56.1597 63.337 55.8977C63.337 55.4067 61.174 55.3417 61.174 54.9487C61.174 54.7187 62.026 54.5557 62.812 54.4237C64.478 54.1287 66.935 52.9177 66.935 51.2157C66.935 49.3167 65.1 48.4968 63.894 47.7108C63.271 47.3178 62.583 46.9917 62.583 46.7297C62.583 46.4667 63.369 46.4667 63.697 46.4667C64.188 46.4667 64.674 46.4337 64.674 46.0417C64.674 45.7457 64.608 45.1577 64.608 44.6987C64.608 44.3707 64.64 44.1087 64.773 44.1087C65.264 44.1087 65.952 45.7127 66.281 45.7127C66.804 45.7127 67.525 44.4027 68.018 44.4027C68.18 44.4027 68.247 44.5017 68.247 44.7957C68.249 46.0077 67.625 47.3827 67.625 48.5637Z" fill="#1766A6"/>
<path d="M52.9563 57.6347C54.4643 57.8317 54.8253 58.3547 54.8253 58.7817C54.8253 59.5027 54.1693 59.7307 53.5453 59.7307C53.0883 59.7307 52.5633 59.6327 52.0063 59.6327C51.2843 59.6327 50.5653 59.7967 49.9763 60.4847C50.4013 60.5497 51.0243 60.8457 51.0243 61.5017C51.0243 63.4007 45.7523 61.8267 45.7523 66.7087C45.7523 69.2947 48.4383 72.1127 52.4973 72.1127C54.5963 72.1127 55.9393 71.4247 55.9393 70.6367C55.9393 70.0157 54.8263 70.4397 54.8263 69.9157C54.8263 69.6867 55.2193 69.2597 55.2193 68.8977C55.2193 68.7397 55.0883 68.4427 54.8263 68.4427C54.2343 68.4427 53.1203 69.3897 50.8603 69.3897C49.0913 69.3897 47.3553 68.3777 47.3553 67.0007C47.3553 66.7067 47.4873 66.5417 47.6833 66.5417C47.8803 66.5417 48.1413 66.6737 48.3713 66.6737C48.5683 66.6737 48.6003 66.5417 48.6003 66.1827C48.6003 65.8217 48.6003 64.8057 49.2213 64.8057C49.8453 64.8057 51.0243 67.0987 55.5463 67.0987C57.0473 67.0987 59.9643 66.8057 61.0463 65.8217C61.0133 69.4247 58.1933 74.1727 52.3013 74.1727C46.1773 74.1727 42.9023 69.2597 42.9023 64.7397C42.9023 59.7307 46.9943 55.1797 52.5963 55.1797C54.0353 55.1797 55.2503 55.6697 55.2503 56.2927C55.2493 57.1457 53.1193 56.6207 52.9563 57.6347ZM63.0113 59.3727C63.2403 59.7307 63.3393 60.0917 63.3393 60.4187C63.3393 61.3367 62.7163 62.1877 62.7163 63.1387C62.7163 64.2187 63.5363 65.1017 64.7753 65.1017C66.1183 65.1017 67.0363 64.0237 67.0363 62.7447C67.0363 61.0087 65.4633 59.5357 63.0113 59.3727ZM52.1693 61.4677C52.4953 61.7937 52.5953 62.1217 52.5953 62.4497C52.5953 62.9407 52.3663 63.4657 52.3663 64.0227C52.3663 64.8057 52.9563 65.4947 53.8063 65.4947C54.7253 65.4947 55.3493 64.7727 55.3493 63.9247C55.3493 62.6797 54.0673 61.4677 52.1693 61.4677ZM56.5223 55.8997C59.9633 56.5547 61.8313 59.1427 61.8313 61.5667C61.8313 63.2377 60.7833 64.7737 58.9473 64.7737C57.2753 64.7737 56.0693 63.6287 56.0693 61.7947C56.0693 60.4197 57.1433 58.9787 57.1433 57.5697C57.1433 57.0137 56.9803 56.4567 56.5223 55.8997ZM58.2263 60.2557C58.2263 60.7137 58.5543 61.0747 59.0133 61.0747C59.5363 61.0747 59.8653 60.6157 59.8653 60.0917C59.8653 59.4047 59.2423 58.4547 58.6523 58.4547C58.3893 58.4547 58.4883 58.8477 58.4233 59.2737C58.3893 59.5997 58.2263 59.9927 58.2263 60.2557Z" fill="#1766A6"/>
<path d="M22.0759 26.5546C23.1889 26.5546 24.4649 20.5286 24.4649 19.5126C24.4649 19.2506 24.3679 19.0536 24.1389 19.0536C23.1229 19.0536 21.7159 24.7856 21.7159 26.0636C21.7149 26.2926 21.7799 26.5546 22.0759 26.5546ZM30.0989 28.3556C30.9159 28.3556 31.8329 25.2106 31.8329 23.2456C31.8329 22.8196 31.7679 22.3626 31.5699 22.3626C30.8819 22.3626 29.7359 25.6046 29.7359 27.3726C29.7369 28.0606 29.9019 28.3556 30.0989 28.3556ZM24.7579 25.4406C25.1179 25.4406 25.5769 25.0456 26.4309 24.0986C26.4949 23.6726 26.4949 23.2786 26.4949 22.7876C26.4949 22.1336 26.2329 21.4126 25.8409 21.4126C24.8569 21.4126 24.3669 24.0326 24.3669 24.7216C24.3679 25.1126 24.5629 25.4406 24.7579 25.4406ZM29.2459 24.0986C29.2459 23.5406 29.1139 23.4096 28.9839 23.4096C28.6559 23.4096 28.2969 23.8036 27.7729 24.6876C27.8379 25.8666 28.0349 26.3906 28.3619 26.3906C28.7219 26.3906 29.2459 25.2436 29.2459 24.0986ZM31.7679 20.2336C33.9299 20.2336 34.9109 22.1006 34.9109 24.1966C34.9109 25.1126 34.6509 26.4566 34.2249 26.4566C33.7989 26.4566 33.8649 25.7026 33.7989 25.0146C33.7339 24.1306 33.5689 23.9346 33.2739 23.9346C32.7169 23.9346 32.3579 25.2436 32.3579 26.4566C32.3579 27.2086 32.4889 28.0606 33.0769 28.0606C33.4049 28.0606 33.6999 27.8966 33.8969 27.7006C33.7659 29.2056 32.6509 30.5176 31.0799 30.5176C28.1979 30.5176 27.1169 27.1436 26.7909 25.1786C25.0549 27.0126 23.4509 28.3556 20.5679 28.3556C17.8839 28.3556 16.6719 26.3906 16.6719 24.5246C16.6719 23.9666 16.8679 22.5266 17.5569 22.5266C18.3749 22.5266 17.6549 25.2106 19.2589 25.2106C19.6529 25.2106 20.3709 24.8826 20.7659 23.8036C20.9949 23.1476 21.1259 22.4616 21.1259 21.8706C21.1259 20.9856 20.9299 20.4306 20.2749 20.4306C19.7169 20.4306 19.0289 20.8546 18.7999 21.0846C19.5869 18.7266 21.4859 17.5156 23.5789 17.5156C26.1689 17.5156 27.5429 19.8076 27.5429 22.3626C27.5429 22.7216 27.5099 23.1146 27.4439 23.4756C28.5579 21.6416 30.0989 20.2336 31.7679 20.2336Z" fill="#1766A6"/>
<path d="M25.6448 29.0469C24.2368 29.0469 24.1718 30.7529 24.1718 34.1889C23.1228 31.9299 21.3887 29.5059 19.3577 29.5059C17.9827 29.5059 17.4597 30.4239 17.4597 32.0269C17.4597 32.3549 17.4917 32.8469 17.5577 33.1399C17.7217 32.5849 18.2457 32.3549 18.8997 32.3549C20.3097 32.3549 22.0118 33.4349 23.1248 34.9099C21.8488 34.6809 20.6037 34.4509 19.5567 34.4509C18.9007 34.4509 18.3117 34.5169 17.8207 34.7459C16.8707 35.1709 15.5938 36.5799 15.5938 38.7089C15.5938 39.0369 15.6267 39.3959 15.6927 39.7889C16.8387 37.2339 19.8837 36.0879 21.8487 36.0879C22.2427 36.0879 22.5357 36.1209 22.7657 36.1539C21.7497 37.0699 21.5218 38.6749 21.4548 39.7559C21.4238 40.2799 21.2257 40.3139 20.8647 40.3139C20.8647 41.3929 21.7177 42.9989 21.7177 43.8169C21.7177 44.1119 21.5537 44.3739 21.3907 44.4399C21.3907 45.8809 22.8298 46.9289 22.8298 47.8449C22.8298 48.0739 22.7658 48.2709 22.6658 48.3699C22.7658 48.9599 24.3498 49.9509 24.5548 50.4479C24.8068 51.0519 25.0897 51.1539 25.2537 51.1539C25.8107 51.1539 26.6928 50.4979 26.6928 49.9079C26.6928 49.7119 26.5287 49.4829 26.3997 49.3839C25.7767 48.9269 25.4488 47.9439 25.1868 47.2899C24.9568 47.2899 24.6607 47.1929 24.5567 46.8069C24.3777 46.1289 24.3687 44.8659 24.1067 44.1119C23.6807 44.0139 23.4838 43.8499 23.4838 42.9659C23.4838 42.5399 23.7467 40.8689 23.7467 40.2789C23.5507 40.2789 23.2887 40.1479 23.2887 39.7549C23.2887 38.7079 24.3378 37.8889 24.6308 36.5469C26.4978 37.9209 26.9547 39.3289 26.9547 40.5749C26.9547 41.2279 26.8567 41.8509 26.7257 42.4419C28.1017 41.7529 30.1648 40.7379 30.1648 38.6749C30.1648 37.4619 29.6077 36.1199 25.9067 35.5959C27.0527 35.1699 28.4948 34.9419 29.7058 34.9419C31.8028 34.9419 33.0137 35.5959 33.2747 37.0689C33.7007 36.4149 34.0287 35.6609 34.0287 34.9739C34.0287 33.3679 32.6847 32.3219 30.9827 32.3219C28.9847 32.3219 27.2168 33.3679 25.3168 34.6469C26.1708 32.8789 26.7567 31.8309 27.8067 31.8309C27.9697 31.8309 28.1338 31.8639 28.2978 31.8969C27.9048 30.4569 26.4318 29.0469 25.6448 29.0469Z" fill="#1766A6"/>
<path d="M80.8194 52.6562C82.4594 52.6562 83.7694 54.7843 83.7694 57.2743C83.7694 59.9262 82.5234 62.8093 80.3024 64.7723C80.2694 60.3523 74.8594 61.7602 74.8594 58.5522C74.8594 57.1772 75.8444 56.2592 77.0244 56.2592C78.0734 56.2592 78.8924 56.5542 79.4824 57.1452C78.8924 56.5872 78.5974 55.8002 78.5974 55.0482C78.5974 53.8012 79.3844 52.6562 80.8194 52.6562Z" fill="#1766A6"/>
<path d="M51.5815 21.5454C52.4345 22.3644 53.1855 22.7234 54.1035 22.7234C54.4655 22.7234 54.8925 22.6264 55.1225 22.6264C55.4175 22.6264 55.6125 22.7564 55.6125 22.9854C55.6125 23.3464 55.2845 23.9364 54.8925 24.2644C55.2845 24.4274 55.7115 24.4934 56.1705 24.4934C58.0305 24.4934 60.1605 23.3134 60.1605 20.3674C60.5555 20.8894 60.7845 21.9714 60.7845 22.4634C60.7845 26.0324 58.1615 27.4074 55.7435 27.4074C54.1705 27.4074 53.3825 26.8824 53.1845 26.8824C52.5635 26.8824 52.5965 28.1284 52.1705 28.0954C51.4165 27.9644 50.7305 26.2944 50.7305 24.5264C50.7315 23.4774 50.9935 22.3644 51.5815 21.5454ZM56.5245 19.1544C56.2625 18.7284 55.2845 18.5004 54.8275 18.5004C53.3835 18.5004 52.4005 19.5144 52.2045 20.4324C52.0735 20.1044 51.9755 19.7114 51.9755 19.3184C51.9755 17.8774 52.9585 16.1094 55.3525 16.1094C57.4425 16.1094 58.2615 17.2224 58.5575 17.2224C58.8845 17.2224 59.2125 16.8944 59.4755 16.8944C59.8355 16.8944 59.8355 17.4514 59.8355 17.8454C59.8355 19.1544 59.2445 21.4144 57.7705 22.2334C57.5075 21.6764 56.9835 21.0534 56.1375 20.6614C55.9085 20.5634 55.8105 20.3674 55.8105 20.1704C55.8095 19.8094 56.1365 19.3504 56.5245 19.1544Z" fill="#1766A6"/>
<path d="M28.8221 12.0153C28.8221 13.1613 32.9151 18.7612 33.7021 18.7612C34.3581 18.7612 34.8481 17.6152 34.8481 16.6312C34.8481 16.3712 34.7821 16.1102 34.6531 15.9122C34.0631 15.0932 29.9041 11.8182 28.9861 11.8182C28.8871 11.8182 28.8221 11.9173 28.8221 12.0153ZM4.75206 8.64225C4.75206 9.29825 2.26406 11.4913 1.38106 11.4913C1.05406 11.4913 0.954062 11.0993 0.954062 10.7393C0.954062 10.0853 1.24906 9.16725 1.61006 8.87125C2.03406 8.47825 3.01706 8.28425 3.77006 8.28425C4.22806 8.28425 4.75206 8.38025 4.75206 8.64225ZM34.6531 10.5422C34.6531 8.57625 29.3401 5.00725 29.2811 3.46925C29.2751 3.32825 29.3521 3.18825 29.4711 3.06325C30.3811 2.10325 34.1601 1.40325 34.1601 0.58525C34.1601 0.16125 33.3731 0.16125 32.9801 0.16125C29.9351 0.16125 25.4811 1.27425 25.4811 2.35425C25.4811 3.46925 29.4761 6.18725 29.4761 7.53025C29.4761 7.89025 29.2471 8.02125 28.8861 8.02125C27.7741 8.02125 25.3501 6.67725 24.2041 6.67725C23.6801 6.67725 23.4821 7.03725 23.4821 7.56325C23.4821 9.13425 25.3491 12.1143 25.3491 12.9963C25.3491 13.0953 25.3161 13.2262 25.1851 13.2262C24.5951 13.2262 21.8141 9.95325 20.8301 9.95325C20.4711 9.95325 20.4371 10.4433 20.4371 11.1643V12.2773C20.4371 13.0303 20.4041 13.4893 20.0461 13.4893C19.1921 13.4893 18.8001 11.0992 17.9821 11.0992C17.1301 11.0992 16.9661 15.3553 16.1491 15.3553C15.1981 15.3553 16.0171 10.6722 15.1001 10.6722C14.0851 10.6722 12.9381 13.7843 12.2171 13.7843C11.9561 13.7843 11.8911 13.5212 11.8911 13.2922C11.8911 12.3432 12.4461 10.8043 12.4461 9.88825C12.4461 9.42825 12.3151 9.16725 11.9241 9.16725C10.9071 9.16725 8.68106 10.8042 7.83006 10.8042C7.69906 10.8042 7.53506 10.7393 7.53506 10.6073C7.53506 9.82325 11.1041 7.33325 11.1041 6.22025C11.1041 5.13825 6.19006 5.86025 6.19006 4.61425C6.19006 3.56725 9.69706 2.48625 9.69706 1.40525C9.69706 0.45525 5.53706 0.03125 3.93306 0.03125C2.00006 0.03125 0.953063 0.25825 0.953063 0.81525C0.953063 1.66725 5.34206 1.93025 5.34206 2.68225C5.34206 3.40325 0.789062 5.33525 0.789062 6.44825C0.789062 7.43125 7.20706 6.51325 7.20706 7.53025C7.20706 8.64225 1.60906 13.4553 1.60906 15.0603C1.60906 15.4213 1.87106 15.5852 2.23006 15.5852C3.93306 15.5852 8.35206 12.3433 9.56506 12.3433C9.99106 12.3433 10.0241 12.8662 10.0241 13.3252C10.0241 14.1772 9.73006 15.4862 9.73006 16.4372C9.73006 17.1892 9.92606 17.7132 10.5801 17.7132C11.7941 17.7132 12.9051 15.6503 13.7261 15.6503C14.7731 15.6503 14.1511 21.7082 15.7231 21.7082C17.0651 21.7082 17.6211 15.1593 18.4731 15.1593C19.3251 15.1593 20.0141 17.0582 20.7991 17.0582C21.7801 17.0582 21.3221 13.7513 22.3711 13.7513C23.5161 13.7513 26.7911 17.6812 28.2651 17.6812C28.7231 17.6812 28.8861 17.3202 28.8861 16.8612C28.8861 15.1252 26.4641 11.1972 26.4641 9.95325C26.4641 9.62625 26.5611 9.52725 26.9211 9.52725C28.1981 9.52725 31.9331 11.2952 33.7001 11.2952C34.2941 11.2952 34.6531 10.9682 34.6531 10.5422ZM31.2461 4.05825C31.2461 4.64725 33.3091 5.92525 34.2601 5.92525C34.8161 5.92525 34.9801 5.17125 34.9801 4.38525C34.9801 3.40325 34.5561 3.37025 33.7031 3.37025C32.6221 3.37025 31.2461 3.66525 31.2461 4.05825ZM23.5501 0.71725C23.5501 0.52025 22.5681 0.32325 21.2261 0.32325C19.0971 0.32325 19.3921 2.09425 17.7551 2.09425C16.0521 2.09425 16.4761 0.25825 14.3151 0.25825C13.0051 0.25825 11.7951 0.48825 11.7951 0.78225C11.7951 1.17625 13.3331 1.01225 13.3331 2.09425C13.3331 3.23925 10.0251 3.56725 10.0251 4.25525C10.0251 4.48425 10.2861 4.58225 10.6141 4.58225C11.3361 4.58225 12.4801 4.25525 13.3001 4.25525C13.7591 4.25525 14.1851 4.35225 14.1851 4.77825C14.1851 5.59725 12.4151 7.07125 12.4151 7.72625C12.4151 7.92325 12.5781 7.98925 12.7421 7.98925C13.3981 7.98925 14.5121 6.31825 15.5591 6.31825C17.2951 6.31825 16.1501 10.0183 17.0981 10.0183C18.0801 10.0183 17.6551 6.38225 19.0631 6.38225C20.2111 6.38225 21.0611 8.90425 21.8471 8.90425C22.0441 8.90425 22.2071 8.74125 22.2071 8.51125C22.2071 7.82525 21.2251 6.41525 21.2251 5.49925C21.2251 4.94225 21.6181 4.67925 22.1421 4.67925C22.8941 4.67925 23.9101 5.13825 24.4651 5.13825C24.6611 5.13825 24.8581 5.07325 24.8581 4.84425C24.8581 4.05825 21.9461 3.20725 21.9461 2.19225C21.9471 1.17625 23.5501 1.17625 23.5501 0.71725Z" fill="#1766A6"/>
<path d="M81.6062 6.02956C81.6062 8.94256 79.4832 11.1696 75.6472 11.7916C76.0742 11.8236 76.4672 11.8236 76.8612 11.8236C81.3442 11.8236 82.9842 9.79456 82.9842 8.09256C82.9842 7.14156 82.4592 6.29156 81.6062 6.02956ZM76.0742 9.33556C76.0742 7.01056 70.5112 6.42056 70.5112 5.89756C70.5112 5.47256 73.6172 4.75056 75.2222 4.71756C72.7662 1.57456 69.2662 1.90256 69.2662 1.34556C69.2662 1.01756 71.8872 0.361563 74.3072 0.361563C76.3372 0.361563 78.2372 0.820562 78.2372 2.35956C78.2372 3.21256 77.5492 4.09756 77.5492 5.40556C77.5492 6.12656 77.9072 6.74856 78.8602 6.74856C79.8782 6.74856 80.1052 5.66856 80.1052 4.52056C80.1052 3.57256 79.9422 2.85156 79.9422 2.39256C79.9422 1.01756 80.8852 0.101562 82.2292 0.101562C83.3432 0.101562 83.6062 0.590563 85.2452 0.590563C84.3592 1.11656 84.0322 2.06656 84.0322 2.52356C84.0322 3.90056 84.9192 4.84956 84.9192 7.66656C84.9192 12.8386 80.0732 14.6726 74.1432 14.6726C72.5132 14.6726 70.7742 14.5416 69.0692 14.2806C68.8082 14.2476 68.7422 14.1826 68.7422 14.0186C68.7422 13.5926 71.0702 13.3626 71.0702 11.2686C71.0702 10.4486 70.8072 9.66356 70.8072 9.36956C70.8072 9.20556 70.9382 9.10656 71.0702 9.10656C71.5612 9.10656 72.5462 11.0056 74.3742 11.0056C74.8602 11.0056 76.0742 10.8416 76.0742 9.33556ZM81.4102 2.09956C81.4102 2.55656 81.7702 2.91656 82.2292 2.91656C82.6882 2.91656 83.0492 2.55656 83.0492 2.09956C83.0492 1.64056 82.6882 1.27956 82.2292 1.27956C81.7702 1.27956 81.4102 1.64056 81.4102 2.09956Z" fill="#1766A6"/>
<path d="M78.5 32.35C78.5 31.663 76.762 31.598 76.599 29.665C76.565 29.371 76.467 28.848 76.106 28.848C75.517 28.848 75.975 30.649 75.32 30.649C73.814 30.649 73.323 27.701 72.766 27.701C72.634 27.701 72.478 27.799 72.478 28.192C72.478 28.553 72.544 28.782 72.544 29.206C72.544 29.633 72.444 29.928 72.052 29.928C71.167 29.928 70.38 27.864 69.626 27.864C69.462 27.864 69.299 27.963 69.299 28.127C69.299 28.52 69.953 29.239 69.953 29.6C69.953 30.387 67.823 29.96 67.823 30.616C67.823 30.911 68.117 31.008 68.511 31.008C69.2 31.008 70.282 30.715 70.839 30.715C71.167 30.715 71.658 30.78 71.658 31.204C71.658 31.663 70.478 32.252 70.478 32.678C70.478 32.875 70.674 32.972 70.838 32.972C71.723 32.972 73.289 31.434 74.403 31.434C74.599 31.434 75.09 31.532 75.09 31.827C75.09 32.252 73.977 33.004 73.977 33.627C73.977 33.791 74.077 33.987 74.273 33.987C74.859 33.987 75.646 32.449 76.761 32.449C77.187 32.449 77.81 32.613 78.139 32.613C78.402 32.613 78.5 32.449 78.5 32.35ZM79.352 48.233C79.877 46.597 80.533 45.449 81.606 43.681C80.533 43.126 77.68 41.945 77.68 40.013C77.68 37.753 80.497 35.985 81.081 35.985C81.344 35.985 81.409 36.215 81.409 36.641C81.409 37.819 80.852 39.718 80.852 40.734C80.852 41.65 81.442 42.536 81.966 42.536C82.523 42.536 84.063 40.571 84.063 38.638C84.063 35.166 81.015 34.119 80.072 34.119C79.187 34.119 77.581 35.559 73.813 35.559C66.774 35.559 65.168 28.586 65.168 25.539C65.168 25.408 65.199 25.375 65.232 25.375C65.396 25.375 66.086 26.228 68.313 26.228C69.46 26.228 70.509 25.932 72.181 25.932C76.104 25.932 77.842 28.652 80.268 32.121C81.735 33.037 85.243 34.512 85.243 38.671C85.243 42.339 81.343 44.369 80.399 48.299C81.899 48.136 82.785 45.449 84.325 45.449C85.112 45.449 85.472 46.072 85.472 47.056C85.472 48.495 84.652 50.658 83.079 52C83.111 51.869 83.111 51.704 83.111 51.508C83.111 50.592 82.752 49.283 81.701 49.283C80.07 49.283 79.546 51.051 78.629 52.523C77.678 49.184 76.4 46.17 74.108 44.336C71.789 42.47 67.789 43.484 67.789 40.079C67.789 39.161 68.38 37.852 68.38 36.804C68.38 36.444 68.314 36.116 68.116 35.854C71.263 37.034 70.148 39.128 72.084 41.29C73.289 42.667 76.631 43.976 78.564 49.641C78.596 49.478 78.629 49.053 78.629 48.758C78.629 43.911 72.213 39.161 71.656 37.196C75.383 37.622 76.038 38.54 77.808 43.452C78.171 44.468 79.352 46.99 79.352 48.233Z" fill="#1766A6"/>
<path d="M61.4374 13.589C59.1424 13.589 57.6354 12.444 57.6354 11.853C57.6354 11.558 57.8314 11.363 58.0954 11.363C58.8154 11.363 60.3884 12.475 60.9114 12.475C61.0444 12.475 61.1414 12.411 61.1414 12.214C61.1414 11.624 60.5844 10.642 60.5844 10.152C60.5844 10.02 60.6834 9.923 60.8794 9.923C61.7634 9.923 63.0744 10.283 63.7644 10.283C63.9934 10.283 64.0584 10.152 64.0584 10.02C64.0584 9.3 61.9274 7.892 61.9274 7.466C61.9274 7.073 64.5754 6.482 64.5754 5.862C64.5754 5.206 60.9754 5.665 60.9754 5.042C60.9754 4.584 61.6644 3.798 61.6644 3.438C61.6644 3.274 61.5324 3.209 61.3044 3.209C61.0094 3.209 59.4364 3.831 58.7804 3.831C58.4534 3.831 58.0594 3.766 58.0594 3.306C58.0594 2.553 59.3374 1.735 61.3374 1.735C64.5744 1.735 66.5094 3.962 66.5094 7.695C66.5114 12.411 63.2074 13.589 61.4374 13.589ZM55.0534 7.368C55.0534 7.007 53.7734 6.32 53.7734 5.927C53.7734 5.862 53.8374 5.829 53.9364 5.829C54.2984 5.829 54.9214 5.96 55.4144 5.96C55.8404 5.96 55.9054 4.126 56.2274 4.126C56.4564 4.126 56.8484 5.862 57.2114 5.862C57.6364 5.862 58.4224 5.37 58.7504 5.37C58.8154 5.37 58.8814 5.402 58.8814 5.469C58.8814 5.698 58.0624 6.581 58.0624 6.843C58.0624 7.138 59.8984 7.499 59.8984 7.761C59.8984 8.089 58.0294 8.056 58.0294 8.351C58.0294 8.578 58.7184 9.496 58.7184 9.791C58.7184 9.857 58.6844 9.89 58.6194 9.89C58.3564 9.89 57.3414 9.43 57.0464 9.43C56.6854 9.43 56.1024 10.773 55.8074 10.773C55.7094 10.773 55.6444 10.642 55.6444 10.478L55.5784 9.169C55.5784 9.038 55.5144 8.906 55.3494 8.906C54.9554 8.906 54.2014 8.873 53.9704 8.873C53.8064 8.873 53.7414 8.841 53.7414 8.775C53.7404 8.513 55.0534 7.597 55.0534 7.368ZM54.1004 12.736C54.6264 12.736 54.7244 14.015 54.8244 14.767C54.8894 15.161 54.9554 15.193 55.1194 15.193C55.5134 15.193 56.1344 13.687 56.5554 13.687C57.1764 13.687 58.8494 15.423 61.6344 15.423C65.5944 15.423 69.3304 12.638 69.3304 7.728C69.3304 2.979 65.9854 0.195 61.3714 0.195C59.1774 0.195 57.5694 1.276 56.7174 1.276C56.2004 1.309 55.4144 0 55.0194 0C54.8564 0 54.6924 0.325 54.6924 0.883C54.6924 1.244 54.6924 2.389 54.2984 2.389C53.5104 2.389 50.4664 0.131 50.4664 0.948C50.4664 1.702 52.4944 3.995 52.4944 4.584C52.4944 5.173 50.4984 5.731 50.4984 6.123C50.4984 6.843 52.6264 6.974 52.6264 7.892C52.6264 8.808 50.3984 9.529 50.3984 10.217C50.3984 10.773 52.6264 10.381 52.6264 11.068C52.6264 11.755 50.9894 14.048 50.9894 14.701C50.9894 14.866 51.0214 14.866 51.1514 14.866C51.7744 14.866 53.6414 12.736 54.1004 12.736Z" fill="#1766A6"/>
<path d="M39.2673 70.2423C39.2673 70.5373 39.1683 70.8653 38.9063 71.1913C38.5483 70.5373 37.5313 70.2093 37.0723 70.2103C33.6993 70.2103 34.9763 75.0903 31.3743 75.0903C29.8683 75.0903 29.7363 74.8933 29.1813 74.8933C28.9513 74.8933 28.8203 74.9923 28.8203 75.1883C28.8203 76.0413 30.0323 78.1353 33.4053 78.1353C36.7783 78.1353 40.0213 76.0733 40.0213 73.5163C40.0213 73.0903 39.9233 72.6353 39.7263 72.1763C39.8573 71.9793 40.1863 71.8483 40.4803 71.8483C41.0033 71.8483 41.2983 72.4403 41.7893 72.4403C42.3143 72.4403 42.7073 72.0453 42.7073 71.5223C42.7073 71.0943 42.4783 70.8013 42.0863 70.6023C42.3483 70.4073 42.5443 70.0793 42.5443 69.7193C42.5443 69.1603 42.1503 68.6393 41.4943 68.6393C41.1993 68.6393 41.0043 68.7393 40.7753 68.9633C40.7113 68.3773 40.3823 67.8203 39.7593 67.8203C39.2683 67.8203 38.9063 68.1793 38.9063 68.7383C38.9063 69.2583 39.2673 69.6863 39.2673 70.2423Z" fill="#1766A6"/>
<path d="M21.3207 64.1576C23.9407 64.8086 25.2507 66.2176 25.5117 67.8886C25.7737 69.4926 26.1007 70.8046 26.7227 71.4576C27.5417 72.3766 29.1467 73.1906 30.5557 73.1906C31.7347 73.1906 32.6827 72.8016 32.6827 71.7196C32.6827 70.5396 31.0787 67.8876 28.7207 67.8876C28.4917 67.8876 28.1967 67.9216 27.8687 67.9216C27.5737 67.9216 27.1477 67.8566 26.8867 67.6266C26.3637 67.1666 26.1987 64.7106 25.2167 63.2376C24.1367 61.5996 22.9577 61.1406 21.3537 61.1406C20.2087 61.1406 18.9297 61.7616 18.9297 62.6796C18.9297 63.2396 19.2247 63.6316 21.3207 64.1576ZM30.4577 71.4916C29.4737 71.4916 28.0007 70.4416 28.0007 69.8516C28.0007 69.3596 28.4597 69.0976 28.8177 69.0976C29.6377 69.0976 31.1097 70.1156 31.1097 70.9666C31.1107 71.1956 30.9467 71.4916 30.4577 71.4916Z" fill="#1766A6"/>
<path d="M27.4437 45.9773C27.4437 43.8813 32.4227 42.7683 32.4227 40.1803C32.4227 39.7543 32.2587 39.0023 31.9637 38.4453C33.6977 39.3943 34.9757 41.0003 34.9757 42.3093C34.9757 44.5693 32.6187 45.6173 32.6187 47.0263C32.6187 48.6633 35.1397 48.9253 35.1397 50.9553C35.1397 52.6243 32.7487 54.5573 32.7487 56.7183C32.7487 58.3883 33.9287 59.7623 35.7277 59.9923C35.1387 60.1233 34.6157 60.2213 34.0587 60.2213C30.7497 60.2213 27.3447 57.5043 27.3447 54.2613C27.3447 52.6573 28.0327 51.2513 29.0787 50.2353C29.9977 51.0213 30.9137 51.5443 31.5037 51.5443C32.0267 51.5443 32.2577 51.2833 32.2577 50.8903C32.2587 49.6773 27.4437 48.5653 27.4437 45.9773ZM37.8907 62.5153C36.7677 63.0293 36.3197 62.9413 36.3197 64.0883C36.3197 64.5133 36.2207 65.0673 36.2207 65.3633C36.2207 65.7563 36.2857 65.9863 36.7437 65.9863C37.9237 65.9863 39.7907 63.9893 39.7907 62.2853C39.7907 61.8253 39.5277 61.6323 39.2327 61.6323C38.9707 61.6323 38.6777 62.1543 37.8907 62.5153ZM37.7597 60.1563C37.7597 58.6833 34.7137 58.6503 34.7137 56.4233C34.7137 55.8653 35.0727 54.9173 35.7947 53.9003C36.0907 55.6033 36.7757 56.4883 38.2517 57.0463C41.1647 58.1253 41.5587 59.7623 41.5587 61.5003C41.5587 64.4483 39.4957 68.1153 34.1907 68.1153C29.9327 68.1153 26.8867 64.3153 26.8867 61.1063C26.8867 60.2213 27.1157 59.2403 27.6727 59.2403C28.1647 59.2403 28.3277 59.6323 28.7207 60.0243C30.1957 61.5003 31.7997 61.8913 34.1247 61.8913C36.2207 61.8923 37.7597 61.0413 37.7597 60.1563Z" fill="#1766A6"/>
<path d="M14.5691 60.8656C14.6491 61.5496 14.1601 62.1666 13.4771 62.2466C12.7931 62.3266 12.1731 61.8366 12.0951 61.1536C12.0151 60.4686 12.5041 59.8496 13.1881 59.7696C13.8721 59.6896 14.4901 60.1806 14.5691 60.8656ZM8.44908 62.1536C8.58808 63.2716 9.63108 64.1196 10.8081 63.9886C11.2331 63.9416 11.6271 63.8256 11.8901 63.6616C12.1521 64.7086 13.0311 65.3826 14.2191 65.2266C15.4251 65.0696 16.2451 64.1196 16.1151 62.9076C16.0811 62.5816 16.0161 62.3826 15.9191 62.1536C15.9191 62.1536 16.0781 62.1366 16.1981 62.1146C17.3811 61.8906 18.1781 60.9416 18.0791 59.7956C17.9491 58.6166 16.8911 57.7416 15.7901 57.8776C15.3631 57.9296 14.9691 58.0926 14.7061 58.3216C14.4101 57.3406 13.4871 56.4876 12.2271 56.6956C11.0881 56.8846 10.3351 57.8506 10.4491 59.0756C10.4681 59.2746 10.5141 59.5016 10.6131 59.7296C10.6131 59.7296 10.4201 59.7586 10.2871 59.7776C9.33108 59.9196 8.29408 60.8816 8.44908 62.1536Z" fill="#1766A6"/>
<path d="M135.479 37.8416C135.098 36.6227 133.984 33.883 133.681 31.8602C133.012 27.3801 135.347 24.4296 137.491 23.7539C139.898 23.0804 140.838 24.2927 141.769 27.1107C142.974 31.4017 143.108 37.0247 142.703 45.0744C142.176 56.0704 136.692 69.3498 123.058 69.0739C111.29 68.8153 106.082 61.1697 105.541 49.5045C105.285 44.0055 105.677 38.5086 107.947 30.7347C109.152 26.5719 110.226 25.0901 113.963 24.2927C116.9 23.7539 116.636 26.8348 115.971 30.4675C114.506 38.5086 113.826 42.3912 114.368 51.5143C114.892 61.1697 119.313 64.9262 124.126 64.9262C131.346 65.0653 134.552 59.0318 135.895 50.3063C136.954 43.3363 136.155 39.9838 135.479 37.8416ZM289.412 47.3645C292.224 47.3645 293.03 50.6995 292.358 52.7201C291.687 54.7277 289.284 57.0177 285.543 57.6847C284.738 55.6684 284.335 47.3645 289.412 47.3645ZM237.152 51.9097C237.152 49.6392 235.941 47.7599 234.484 47.7599C233.266 47.7599 230.47 49.0961 230.47 53.3893C230.47 56.7526 231.661 58.3474 232.207 59.0317C236.074 57.8194 237.152 54.593 237.152 51.9097ZM195.567 24.56C195.379 22.409 193.698 20.9446 191.423 20.9446C188.887 20.9446 186.497 23.6149 186.751 26.9695C186.913 29.1813 188.213 30.9998 190.767 30.9998C193.698 31.002 195.836 27.6495 195.567 24.56ZM217.308 32.4359C217.077 28.6859 216.171 26.9934 214.163 27.1324C211.501 27.2932 210.271 35.695 210.814 44.5269C211.161 50.2889 212.017 51.1775 212.814 51.121C214.287 51.0319 217.82 40.7378 217.308 32.4359ZM305.992 46.5519C304.335 53.4458 299.311 63.5879 291.817 63.5879C290.081 63.5879 287.006 62.9122 287.006 61.1697C287.006 59.2903 298.778 59.0317 298.778 50.0412C298.778 46.6931 295.705 41.9936 291.156 41.9936C285.141 41.9936 279.273 48.5703 279.273 57.6869C279.273 65.8605 284.335 68.5438 289.414 68.5438C298.241 68.5438 303.589 61.2979 306.395 55.2687C307.738 59.2925 308.526 68.5438 311.881 68.5438C313.213 68.5438 314.156 67.8724 315.761 64.257C319.762 55.2665 323.643 44.9419 328.994 44.9419C330.993 44.9419 329.795 48.5703 334.606 48.5703C336.874 48.5703 338.473 46.6931 338.473 44.5378C338.473 41.4504 335.67 39.0452 331.396 39.0452C318.826 39.0452 316.162 57.9541 314.154 57.9541C310.809 57.9541 311.879 42.7996 309.468 42.7996C307.328 42.7975 306.278 45.3547 305.992 46.5519ZM199.046 62.6406C201.049 62.6406 204.496 61.9888 207.208 57.6325C205.657 54.178 204.55 47.1972 204.396 44.6551C203.599 31.656 208.592 19.4281 214.057 19.0891C218.064 18.8458 221.27 22.6502 221.638 28.8141C222.624 45.0114 217.246 51.7728 214.553 57.6065C215.008 59.8682 218.833 63.7182 222.442 63.7182C223.774 63.7182 225.386 63.0469 225.791 62.5037C225.522 61.5716 225.249 60.3658 225.249 58.6168C225.249 49.2308 231.267 41.3157 236.483 41.3157C240.627 41.3157 243.033 46.8126 243.033 50.441C243.033 54.7255 239.42 58.2192 234.076 61.5716C235.016 62.5037 236.745 63.1816 238.222 63.1816C245.849 63.1816 249.839 53.926 252.794 45.4742C253.327 43.8621 254.269 41.5873 256.136 41.5873C259.344 41.5873 260.687 62.7753 266.02 62.7753C268.301 62.7753 270.168 58.0779 270.168 54.4669C270.168 51.7815 269.233 51.5121 269.233 47.623C269.233 43.3363 271.507 39.7188 274.589 39.7188C276.459 39.7188 277.135 41.5873 277.135 43.8621C277.135 52.4463 270.976 68.4069 261.898 68.4069C255.068 68.4069 255.601 56.6049 253.197 56.6049C250.511 56.6049 246.768 68.5394 233.546 68.5394C231.397 68.5394 229.129 67.4683 227.262 65.3173C224.058 67.4683 221.376 68.4069 218.301 68.4069C213.36 68.4069 211.215 63.3098 209.216 63.3098C206.805 63.3098 204.138 68.5394 196.109 68.5394C189.693 68.5394 188.622 59.966 186.355 59.966C184.344 59.966 181.271 68.5394 177.93 68.5394C172.307 68.5394 171.116 53.6587 166.16 53.6587C162.285 53.6587 150.035 68.7719 146.71 68.4264C145.374 68.2874 144.81 67.2858 144.951 65.9431C145.14 64.0876 146.732 59.1208 147.377 56.7722C148.458 52.694 149.45 48.2248 150.005 46.7996C150.555 45.3612 152.039 44.3357 153.23 44.4465C153.83 44.503 154.01 45.6263 154.196 46.554C154.872 49.8696 155.814 53.2503 156.878 53.2503C158.756 53.2503 164.958 41.3135 168.566 41.3135C172.985 41.3135 173.514 60.092 179.527 60.092C181.537 60.092 183.012 57.6825 184.344 54.7233C184.481 49.7544 185.817 42.6628 189.827 42.6628C192.636 42.6628 193.975 48.9592 191.963 54.4648C191.958 61.0306 196.232 62.6406 199.046 62.6406Z" fill="#1766A6"/>
</svg>
