<svg width="500" height="500" viewBox="0 0 500 500" fill="none" xmlns="http://www.w3.org/2000/svg">
<path d="M50.1145 346.938C60.8987 340.113 64.7359 326.369 60.6186 314.288C45.9144 271.146 46.8214 225.335 61.2093 184.087C65.4079 172.051 61.6769 158.298 50.9638 151.389C38.3668 143.264 21.3964 147.789 16.1144 161.817C-4.5586 216.721 -5.90828 278.599 15.3649 336.249C20.5478 350.295 37.4643 354.946 50.1145 346.938Z" fill="#F36E25"/>
<path d="M155.896 451.204C162.563 440.337 176.23 436.297 188.358 440.225C238.739 456.541 295.464 452.935 345.642 425.606C442.626 372.785 478.428 251.343 425.606 154.358C423.97 151.355 422.269 148.411 420.504 145.526C413.853 134.651 414.587 120.421 423.59 111.397C434.18 100.783 451.728 101.607 459.86 114.204C463.25 119.455 466.469 124.87 469.507 130.448C535.535 251.678 490.783 403.481 369.552 469.508C304.883 504.729 231.514 508.428 167.107 485.81C152.964 480.844 148.059 463.981 155.896 451.204Z" fill="#F36E25"/>
<path d="M144.362 108.3C137.76 96.1771 142.233 80.9975 154.358 74.3941C219.243 39.0552 295.077 43.3825 353.983 79.1611C364.887 85.7818 379.124 85.0166 388.127 75.9817C398.707 65.3653 397.839 47.8248 385.228 39.7273C310.887 -7.9841 213.493 -14.7373 130.447 30.4927C94.0775 50.3011 80.6525 95.8415 100.461 132.211C120.269 168.58 165.809 182.005 202.179 162.197C250.67 135.787 311.392 153.687 337.803 202.179C364.214 250.671 346.312 311.393 297.821 337.803C249.331 364.212 188.608 346.313 162.197 297.821C153.7 282.22 149.792 265.351 150.01 248.769C150.167 236.874 144.886 224.981 134.266 219.624C119.853 212.357 102.202 219.869 100.675 235.936C97.944 264.662 103.455 294.484 118.295 321.731C119.853 324.592 121.491 327.381 123.204 330.099C125.804 334.223 125.386 339.637 121.944 343.09L73.5 391.703C63.7578 401.48 63.7853 417.306 73.5623 427.051C83.3427 436.794 99.1687 436.766 108.911 426.989L157.338 378.393C160.781 374.939 166.196 374.504 170.331 377.091C214.743 404.874 272.446 408.547 321.732 381.704C394.471 342.087 421.321 251.007 381.705 178.268C342.089 105.53 251.008 78.6788 178.268 118.296C166.144 124.899 150.965 120.423 144.362 108.3Z" fill="#212222"/>
<path d="M273.91 293.901C249.664 307.107 219.303 298.157 206.098 273.91C192.892 249.664 201.842 219.304 226.089 206.099C250.335 192.893 280.695 201.843 293.901 226.089C307.106 250.336 298.156 280.696 273.91 293.901Z" fill="#F36E25"/>
</svg>
