<svg width="48" height="29" viewBox="0 0 48 29" fill="none" xmlns="http://www.w3.org/2000/svg">
<path d="M18.888 14.7732L16.8 1.11717C21.4844 -0.372391 26.5156 -0.372391 31.2 1.11717L29.112 14.7732C28.944 15.9492 27.912 16.8132 26.712 16.8132H21.264C20.6893 16.8139 20.1335 16.6085 19.6974 16.2341C19.2614 15.8597 18.9742 15.3413 18.888 14.7732ZM48 24.0132C48 22.1172 46.872 20.4132 45.12 19.6212C43.9655 14.0717 40.6941 9.19045 36 6.01317L31.776 17.6292C31.44 18.5892 30.528 19.2132 29.52 19.2132H18.48C17.472 19.2132 16.56 18.5892 16.224 17.6292L12 6.01317C7.31468 9.18839 4.045 14.0585 2.88 19.5972C1.128 20.4132 0 22.0932 0 24.0132L15.48 28.4292C16.344 28.6692 17.232 28.8132 18.12 28.8132H29.832C30.72 28.8132 31.608 28.6692 32.472 28.4292L48 24.0132Z" fill="#F0F0F0"/>
</svg>
