<svg width="48" height="25" viewBox="0 0 48 25" fill="none" xmlns="http://www.w3.org/2000/svg">
<path d="M8.05497 7.28471V7.50454H5.13445C3.45437 7.50454 2.52798 8.57225 2.52798 10.3151C2.52798 13.5971 4.78381 16.0314 8.18663 16.3405C8.35631 17.2639 8.74924 18.1222 9.33679 18.9039H9.18548C3.6742 18.9039 0 15.3711 0 10.3151C0 6.98638 1.88421 4.97656 5.13445 4.97656H8.59429C8.23381 5.67434 8.05497 6.44566 8.05497 7.28471ZM48 10.3151C48 15.3711 44.3259 18.9039 38.8303 18.9039H38.6635C39.2509 18.1222 39.6437 17.2639 39.8135 16.3405C43.2162 16.0314 45.472 13.5971 45.472 10.3151C45.472 8.57225 44.5457 7.50454 42.8656 7.50454H39.945L39.9451 7.28471C39.9451 6.44566 39.7662 5.67434 39.4059 4.97656H42.8656C46.1315 4.97656 48 6.98638 48 10.3151Z" fill="#F0F0F0"/>
<path d="M39.9451 7.28471L39.9449 15.1364C39.9449 20.4593 33.3187 24.0864 24.0075 24.0864C14.6808 24.0864 8.05469 20.4593 8.05469 15.1364L8.05497 7.28471C8.05497 2.57421 13.6916 0 24.0075 0C34.3079 0 39.9451 2.57421 39.9451 7.28471ZM16.8005 13.4092C16.0782 13.4092 15.4973 14.0059 15.4973 14.7282C15.4973 15.4505 16.0782 16.0314 16.8005 16.0314H31.2147C31.9526 16.0314 32.5336 15.4505 32.5336 14.7282C32.5336 14.0059 31.9526 13.4092 31.2147 13.4092H16.8005ZM16.8005 7.36409C16.0782 7.36409 15.4973 7.96075 15.4973 8.66732C15.4973 9.3896 16.0782 9.98627 16.8005 9.98627H31.2147C31.9526 9.98627 32.5336 9.3896 32.5336 8.66732C32.5336 7.96075 31.9526 7.36409 31.2147 7.36409H16.8005Z" fill="#F0F0F0"/>
</svg>
