<svg width="37" height="48" viewBox="0 0 37 48" fill="none" xmlns="http://www.w3.org/2000/svg">
<path d="M17.4425 48C29.1595 48 36.971 40.0776 36.971 28.1387C36.971 8.27741 20.0611 0 8.3218 0C6.23581 0 4.9043 0.732318 4.9043 2.15257C4.9043 2.70737 5.14841 3.28433 5.61443 3.81693C8.25522 6.96813 10.896 10.7185 10.9404 15.0902C10.9404 16.0888 10.8294 16.9765 10.1193 18.2192L11.2289 17.9973C10.2303 14.7351 7.54509 12.4272 5.1928 12.4272C4.28295 12.4272 3.6616 13.093 3.6616 14.0916C3.6616 14.6685 3.81693 16.0222 3.81693 16.9986C3.81693 21.9695 0 24.8766 0 32.8878C0 41.964 6.94593 48 17.4425 48ZM17.9529 41.7643C13.8031 41.7643 11.0513 39.2568 11.0513 35.5285C11.0513 31.6228 13.8253 30.2247 14.1803 27.717C14.2247 27.5173 14.3579 27.4509 14.5132 27.584C15.534 28.4939 16.1998 29.6034 16.7545 30.8906C17.9307 29.2928 18.4855 25.9195 18.1082 22.2802C18.086 22.0805 18.2192 21.9695 18.4189 22.0361C23.2788 24.3218 25.8087 29.1595 25.8087 33.4869C25.8087 37.8807 23.2345 41.7643 17.9529 41.7643Z" fill="#FD6969"/>
</svg>
