<svg width="41" height="48" viewBox="0 0 41 48" fill="none" xmlns="http://www.w3.org/2000/svg">
<path d="M21.0665 6.69757L21.5273 6.95247C22.3543 7.40972 22.9249 8.20559 23.0929 9.13608L23.5009 11.3956C23.5217 11.5103 23.6161 11.5968 23.7314 11.6065C23.7385 11.6071 23.7457 11.6074 23.7528 11.6074C23.8597 11.6074 23.9564 11.54 23.9935 11.4372L26.4082 4.69401C26.6154 4.11545 26.587 3.49013 26.3279 2.93316C26.0689 2.37628 25.6104 1.95455 25.037 1.7456C24.474 1.54036 23.8336 1.57019 23.2914 1.82674C22.7394 2.08804 22.3215 2.55066 22.1146 3.1289L20.9488 6.38352C20.906 6.50317 20.9558 6.63645 21.0665 6.69757Z" fill="#FBC966"/>
<path d="M25.3869 10.2251C25.4203 10.2894 25.4794 10.3363 25.5492 10.3544L26.2023 10.5247C26.9722 10.7251 27.631 11.2137 28.0571 11.8998L28.7266 12.9776C28.7736 13.0533 28.8559 13.0986 28.9432 13.0986C28.9523 13.0986 28.9613 13.0981 28.9705 13.0972C29.0679 13.0865 29.1507 13.0211 29.1841 12.9282L32.7093 3.08368C32.9166 2.50513 32.8881 1.87981 32.6292 1.32283C32.3704 0.766062 31.9117 0.344226 31.3382 0.135063C30.7752 -0.0701766 30.1342 -0.0402372 29.5928 0.216209C29.0406 0.477611 28.6227 0.940123 28.4157 1.51847L25.3726 10.0165C25.348 10.0853 25.3533 10.1608 25.3869 10.2251Z" fill="#FBC966"/>
<path d="M27.6075 14.2774C27.6075 13.0076 26.5835 11.9744 25.3247 11.9744C24.0659 11.9744 23.0418 13.0076 23.0418 14.2774V23.1975H22.2232V10.4211C22.2232 9.15126 21.1992 8.11825 19.9404 8.11825C18.6818 8.11825 17.6577 9.15126 17.6577 10.4211V23.1974H16.839V6.74713C16.839 5.47728 15.8149 4.44417 14.5561 4.44417C13.2974 4.44417 12.2734 5.47728 12.2734 6.74713V23.1975H11.4547V10.4211C11.4547 9.15126 10.4307 8.11825 9.17184 8.11825C7.91312 8.11825 6.88905 9.15126 6.88905 10.4211V25.0022L4.26846 21.9494C3.79976 21.4035 3.22474 21.0504 2.64951 20.9554C2.54329 20.9379 2.43635 20.929 2.33145 20.929C1.85079 20.929 1.40184 21.1083 0.997413 21.462C-0.137586 22.4535 -0.302653 23.7304 0.495766 25.3714L6.89806 37.7198L6.05195 47.72C6.04581 47.792 6.07007 47.8633 6.11827 47.9165C6.16687 47.9698 6.23524 48 6.30687 48H28.2319C28.3036 48 28.3722 47.9695 28.4207 47.9162C28.4693 47.8626 28.4932 47.7913 28.4868 47.7191L27.6073 37.7627V14.2774H27.6075Z" fill="#FBC966"/>
<path d="M39.4923 10.9085C38.9294 10.7035 38.2887 10.7332 37.7469 10.9897C37.1954 11.2508 36.7776 11.713 36.5705 12.291L33.5659 20.6814L32.796 20.4006L37.0991 8.3844C37.5266 7.19023 36.9113 5.86763 35.7276 5.43619C35.4781 5.34524 35.2179 5.29909 34.9538 5.29909C33.9961 5.29909 33.1329 5.90934 32.8057 6.81785L29.1069 17.1468C29.0968 17.1749 29.0918 17.2046 29.0918 17.2346V36.964C29.0918 36.9717 29.0921 36.9792 29.0928 36.9868L29.8156 45.197C29.8264 45.3207 29.9235 45.4191 30.0462 45.4311C30.0544 45.4318 30.0625 45.4322 30.0705 45.4322C30.1835 45.4322 30.2847 45.3569 30.3162 45.2452L32.9563 35.9404L40.8642 13.8567C41.2916 12.6628 40.6763 11.3401 39.4923 10.9085Z" fill="#FBC966"/>
</svg>
