<svg width="48" height="33" viewBox="0 0 48 33" fill="none" xmlns="http://www.w3.org/2000/svg">
<path d="M47.2724 9.87346C46.4028 8.58573 44.8689 8.07473 43.5157 7.62381C42.6771 7.3445 41.8851 7.08056 41.3031 6.68381C40.8452 6.37179 40.382 5.75638 39.8915 5.10497C39.045 3.98043 38.0854 2.70582 36.5475 2.13933C35.2177 1.64933 33.8412 1.91711 32.51 2.17608C31.5915 2.35481 30.7242 2.52352 30.0263 2.40777C29.4323 2.30917 28.7193 1.88852 27.9643 1.44313C26.8178 0.766693 25.5182 0 24 0C22.4818 0 21.1823 0.766786 20.0357 1.44313C19.2807 1.88852 18.5677 2.30917 17.9736 2.40777C17.2762 2.52362 16.4085 2.35481 15.49 2.17608C14.1588 1.9172 12.7822 1.64942 11.4526 2.13933C9.9146 2.70582 8.95511 3.98043 8.10847 5.10497C7.61809 5.75638 7.15479 6.37179 6.69684 6.68381C6.11488 7.08056 5.32288 7.3445 4.4843 7.62381C3.13106 8.07473 1.59721 8.58573 0.727603 9.87346C-0.275471 11.359 -0.123069 14.7643 0.472945 17.4799C0.86079 19.2474 1.75523 22.1885 3.69436 24.5953H7.10952C6.04074 22.5554 5.3944 20.2435 5.01508 18.4294L7.76739 17.8538C8.37034 20.7372 9.27491 23.0495 10.3986 24.5953H14.8975C14.3291 22.5387 13.9916 20.1457 13.7974 18.2878L16.594 17.9954C16.8782 20.7133 17.3111 23.0077 17.8333 24.5953H22.5941V18.1416H25.4059V24.5953H30.1667C30.6889 23.0077 31.1218 20.7133 31.406 17.9954L34.2026 18.2878C34.0083 20.1456 33.6708 22.5387 33.1024 24.5953H37.6014C38.7251 23.0495 39.6296 20.7372 40.2326 17.8538L42.9849 18.4294C42.6055 20.2435 41.9592 22.5554 40.8905 24.5953H44.3056C46.2448 22.1884 47.1393 19.2474 47.5271 17.4799C48.1231 14.7643 48.2755 11.359 47.2724 9.87346Z" fill="#303030"/>
<path d="M4.98193 27.4062H43.0171V32.3305H4.98193V27.4062Z" fill="#303030"/>
</svg>
