<svg width="535" height="352" viewBox="0 0 535 352" fill="none" xmlns="http://www.w3.org/2000/svg">
<path d="M80.6716 0H70.3284C55.7876 0 44 11.6406 44 26C44 40.3594 55.7876 52 70.3284 52H80.6716C95.2124 52 107 40.3594 107 26C107 11.6406 95.2124 0 80.6716 0Z" fill="#FDF0AD"/>
<path d="M455.093 0H147.907C133.599 0 122 11.6406 122 26C122 40.3594 133.599 52 147.907 52H455.093C469.401 52 481 40.3594 481 26C481 11.6406 469.401 0 455.093 0Z" fill="#FDF0AD"/>
<path d="M446.288 266H77.7124C62.4073 266 50 278.312 50 293.5C50 308.688 62.4073 321 77.7124 321H446.288C461.593 321 474 308.688 474 293.5C474 278.312 461.593 266 446.288 266Z" fill="#FDF0AD"/>
<path d="M457.056 63H77.944C34.8967 63 0 97.9218 0 141C0 184.078 34.8967 219 77.944 219H457.056C500.103 219 535 184.078 535 141C535 97.9218 500.103 63 457.056 63Z" fill="#FDF0AD"/>
<path d="M507 321C522.464 321 535 309.136 535 294.5C535 279.864 522.464 268 507 268C491.536 268 479 279.864 479 294.5C479 309.136 491.536 321 507 321Z" fill="#FDF0AD"/>
<path d="M73 214C74.5408 214.447 88.4355 218.689 93.4198 232.246C97.6894 243.85 93.6704 257.461 83.2099 266H448C435.748 264.577 426.355 254.761 425.705 243.193C425 230.676 434.699 219.227 448 217.649C323.003 216.436 197.997 215.213 73 214Z" fill="#FDF0AD"/>
<path d="M329 69.5801H204.31C197.683 69.5801 192.31 74.9527 192.31 81.5801V273.42C192.31 280.048 197.683 285.42 204.31 285.42H329C335.627 285.42 341 280.048 341 273.42V81.5801C341 74.9527 335.627 69.5801 329 69.5801Z" fill="#CCCCCC"/>
<path d="M317.52 98.3604H215.8C214.42 98.3604 213.3 99.4796 213.3 100.86V101.86C213.3 103.241 214.42 104.36 215.8 104.36H317.52C318.901 104.36 320.02 103.241 320.02 101.86V100.86C320.02 99.4796 318.901 98.3604 317.52 98.3604Z" fill="#999999"/>
<path d="M317.52 112.75H215.8C214.42 112.75 213.3 113.869 213.3 115.25V116.25C213.3 117.631 214.42 118.75 215.8 118.75H317.52C318.901 118.75 320.02 117.631 320.02 116.25V115.25C320.02 113.869 318.901 112.75 317.52 112.75Z" fill="#999999"/>
<path d="M255.76 218.271H216.39C215.009 218.271 213.89 219.39 213.89 220.771V221.771C213.89 223.151 215.009 224.271 216.39 224.271H255.76C257.141 224.271 258.26 223.151 258.26 221.771V220.771C258.26 219.39 257.141 218.271 255.76 218.271Z" fill="#D9D9D9"/>
<path d="M319.31 218.271H263.16C261.779 218.271 260.66 219.39 260.66 220.771V221.771C260.66 223.151 261.779 224.271 263.16 224.271H319.31C320.691 224.271 321.81 223.151 321.81 221.771V220.771C321.81 219.39 320.691 218.271 319.31 218.271Z" fill="#999999"/>
<path d="M268.95 233.86H216.39C215.009 233.86 213.89 234.98 213.89 236.36V237.36C213.89 238.741 215.009 239.86 216.39 239.86H268.95C270.331 239.86 271.45 238.741 271.45 237.36V236.36C271.45 234.98 270.331 233.86 268.95 233.86Z" fill="#D9D9D9"/>
<path d="M319.32 233.86H277.55C276.17 233.86 275.05 234.98 275.05 236.36V237.36C275.05 238.741 276.17 239.86 277.55 239.86H319.32C320.701 239.86 321.82 238.741 321.82 237.36V236.36C321.82 234.98 320.701 233.86 319.32 233.86Z" fill="#999999"/>
<path d="M268.95 249.45H216.39C215.009 249.45 213.89 250.569 213.89 251.95V252.95C213.89 254.331 215.009 255.45 216.39 255.45H268.95C270.331 255.45 271.45 254.331 271.45 252.95V251.95C271.45 250.569 270.331 249.45 268.95 249.45Z" fill="#D9D9D9"/>
<path d="M319.32 249.45H277.55C276.17 249.45 275.05 250.569 275.05 251.95V252.95C275.05 254.331 276.17 255.45 277.55 255.45H319.32C320.701 255.45 321.82 254.331 321.82 252.95V251.95C321.82 250.569 320.701 249.45 319.32 249.45Z" fill="#999999"/>
<path d="M311 45H179.31C172.683 45 167.31 50.3726 167.31 57V259C167.31 265.627 172.683 271 179.31 271H311C317.627 271 323 265.627 323 259V57C323 50.3726 317.627 45 311 45Z" fill="#FDFDFD"/>
<path d="M298.52 75.1299H191.78C190.4 75.1299 189.28 76.2492 189.28 77.6299V78.9099C189.28 80.2906 190.4 81.4099 191.78 81.4099H298.52C299.901 81.4099 301.02 80.2906 301.02 78.9099V77.6299C301.02 76.2492 299.901 75.1299 298.52 75.1299Z" fill="#D9D9D9"/>
<path d="M298.52 90.2002H191.78C190.4 90.2002 189.28 91.3195 189.28 92.7002V93.9802C189.28 95.3609 190.4 96.4802 191.78 96.4802H298.52C299.901 96.4802 301.02 95.3609 301.02 93.9802V92.7002C301.02 91.3195 299.901 90.2002 298.52 90.2002Z" fill="#D9D9D9"/>
<path d="M233.87 200.69H192.41C191.029 200.69 189.91 201.81 189.91 203.19V204.47C189.91 205.851 191.029 206.97 192.41 206.97H233.87C235.251 206.97 236.37 205.851 236.37 204.47V203.19C236.37 201.81 235.251 200.69 233.87 200.69Z" fill="#D9D9D9"/>
<path d="M300.41 200.69H241.38C239.999 200.69 238.88 201.81 238.88 203.19V204.47C238.88 205.851 239.999 206.97 241.38 206.97H300.41C301.791 206.97 302.91 205.851 302.91 204.47V203.19C302.91 201.81 301.791 200.69 300.41 200.69Z" fill="#D9D9D9"/>
<path d="M247.68 217.01H192.41C191.029 217.01 189.91 218.129 189.91 219.51V220.79C189.91 222.17 191.029 223.29 192.41 223.29H247.68C249.061 223.29 250.18 222.17 250.18 220.79V219.51C250.18 218.129 249.061 217.01 247.68 217.01Z" fill="#D9D9D9"/>
<path d="M300.41 217.01H256.44C255.059 217.01 253.94 218.129 253.94 219.51V220.79C253.94 222.17 255.059 223.29 256.44 223.29H300.41C301.791 223.29 302.91 222.17 302.91 220.79V219.51C302.91 218.129 301.791 217.01 300.41 217.01Z" fill="#D9D9D9"/>
<path d="M247.68 233.33H192.41C191.029 233.33 189.91 234.449 189.91 235.83V237.11C189.91 238.491 191.029 239.61 192.41 239.61H247.68C249.061 239.61 250.18 238.491 250.18 237.11V235.83C250.18 234.449 249.061 233.33 247.68 233.33Z" fill="#D9D9D9"/>
<path d="M300.41 233.33H256.44C255.059 233.33 253.94 234.449 253.94 235.83V237.11C253.94 238.491 255.059 239.61 256.44 239.61H300.41C301.791 239.61 302.91 238.491 302.91 237.11V235.83C302.91 234.449 301.791 233.33 300.41 233.33Z" fill="#D9D9D9"/>
<path d="M296.695 191.881L289.935 198.641C288.505 200.07 288.505 202.387 289.935 203.817L304.473 218.355C305.902 219.784 308.22 219.784 309.649 218.355L316.409 211.595C317.838 210.165 317.838 207.848 316.409 206.419L301.871 191.881C300.441 190.451 298.124 190.451 296.695 191.881Z" fill="#B3B3B3"/>
<path d="M315.194 205.376L303.371 217.199C301.942 218.628 301.942 220.946 303.371 222.375L339.907 258.911C341.337 260.341 343.654 260.341 345.083 258.911L356.906 247.089C358.336 245.659 358.336 243.342 356.906 241.912L320.37 205.376C318.941 203.947 316.623 203.947 315.194 205.376Z" fill="#FBC966"/>
<path d="M292.688 184.883L282.93 194.641C281.501 196.071 281.501 198.388 282.93 199.818L286.466 203.353C287.895 204.782 290.213 204.782 291.642 203.353L301.4 193.595C302.829 192.166 302.829 189.848 301.4 188.419L297.864 184.883C296.435 183.454 294.118 183.454 292.688 184.883Z" fill="#999999"/>
<path d="M199.5 178.5C198.55 175.18 197.43 170.45 196.8 164.68C196.65 163.3 195.41 151.38 197.5 141.5C201.87 120.8 222.56 100.89 244.5 98.4996C252.22 97.6596 259.36 99.0596 261.5 99.4996C272.25 101.69 280.07 106.37 284.5 109.5" stroke="#999999" stroke-width="9" stroke-miterlimit="10"/>
<path d="M247.5 205.5C277.876 205.5 302.5 180.876 302.5 150.5C302.5 120.124 277.876 95.5 247.5 95.5C217.124 95.5 192.5 120.124 192.5 150.5C192.5 180.876 217.124 205.5 247.5 205.5Z" stroke="#CCCCCC" stroke-width="9" stroke-miterlimit="10"/>
<path d="M240.72 143.5C240.27 139.64 242.04 135.9 245.22 134C249.32 131.55 254.56 132.9 257.22 136C257.43 136.24 259.97 139.3 259.22 143C258.16 148.23 251.67 148.96 249.72 155.5C249.29 156.93 249.22 158.18 249.22 159" stroke="#666666" stroke-width="3" stroke-miterlimit="10"/>
<path d="M250 170C251.657 170 253 168.657 253 167C253 165.343 251.657 164 250 164C248.343 164 247 165.343 247 167C247 168.657 248.343 170 250 170Z" fill="#666666"/>
</svg>
