<svg width="43" height="48" viewBox="0 0 43 48" fill="none" xmlns="http://www.w3.org/2000/svg">
<path d="M19.4722 22.2562L14.2163 6.53437C15.8523 7.47187 18.1089 8.25 21.0612 8.25C24.0136 8.25 26.2701 7.47187 27.9061 6.53437L21.2963 26.3063C21.1458 26.7656 21.0612 27.2437 21.0612 27.7312V43.5C21.0612 45.9844 23.0827 48 25.5743 48H37.6093C40.1009 48 42.1224 45.9844 42.1224 43.5V25.3594C42.1224 24.4688 41.8592 23.6062 41.3609 22.8656L36.8571 16.1344C36.3588 15.3938 36.0956 14.5312 36.0956 13.6406V4.5C36.0956 2.01562 34.0741 0 31.5824 0H30.9901C29.2413 0 27.8027 0.909375 26.8625 1.7625C25.988 2.55 24.1828 3.75 21.0612 3.75C17.9397 3.75 16.1344 2.55 15.26 1.7625C14.3198 0.909375 12.8812 0 11.123 0H10.5306C8.03899 0 6.01749 2.01562 6.01749 4.5V13.6406C6.01749 14.5312 5.75423 15.3938 5.2559 16.1344L0.761589 22.8656C0.263265 23.6062 0 24.4781 0 25.3594V43.5C0 45.9844 2.0215 48 4.51312 48H16.5481C17.4789 48 18.3345 47.7187 19.0585 47.2406C18.4192 46.1437 18.0525 44.8594 18.0525 43.5V27.7312C18.0525 26.925 18.1841 26.1281 18.438 25.3594L19.4722 22.2562ZM32.6543 33.4406L37.1674 37.9406C37.7504 38.5219 37.7504 39.4781 37.1674 40.0594C36.5845 40.6406 35.6254 40.6406 35.0425 40.0594L30.5294 35.5594C29.9464 34.9781 29.9464 34.0219 30.5294 33.4406C31.1123 32.8594 32.0714 32.8594 32.6543 33.4406ZM4.95503 37.9406L9.46815 33.4406C10.0511 32.8594 11.0101 32.8594 11.5931 33.4406C12.176 34.0219 12.176 34.9781 11.5931 35.5594L7.07996 40.0594C6.49701 40.6406 5.53797 40.6406 4.95503 40.0594C4.37208 39.4781 4.37208 38.5219 4.95503 37.9406Z" fill="#FBC966"/>
</svg>
