<svg width="385" height="273" viewBox="0 0 385 273" fill="none" xmlns="http://www.w3.org/2000/svg">
<path d="M166.913 226.747C164.493 224.067 159.183 217.556 149.673 212.928C138.362 207.424 130.349 209.077 120.365 207.747C102.967 205.426 84.6037 194.711 73.8144 179.245C58.2903 156.994 63.0613 131.53 64.3326 125.699C65.4337 120.652 70.6251 96.836 90.1935 85.1056C94.4439 82.5582 104.29 80.4941 123.812 76.4683C156.328 69.7647 155.273 71.1507 160.879 68.6955C175.69 62.2065 175.162 55.9803 199.669 37.6044C214.513 26.4758 221.932 20.9115 230.701 19.4673C255.79 15.3372 276.937 36.3808 278.976 38.467C288.676 48.4001 293.006 59.6631 298.802 74.7413C304.878 90.5496 302.991 92.9727 309.147 104.97C313.724 113.888 316.537 115.998 328.974 133.471C338.998 147.553 344.009 154.593 345.353 157.654C354.995 179.637 344.848 211.929 325.526 231.065C306.849 249.562 283.682 251.718 264.322 253.521C231.154 256.608 186.431 248.348 166.913 226.747Z" fill="#FDF0AD"/>
<path d="M245.941 207.359H294.33V126.902C278.301 124.053 262.272 121.205 246.244 118.354C246.144 148.023 246.042 177.69 245.941 207.359Z" fill="#D0C9B9"/>
<path d="M120.629 121.155C121.61 123.023 122.591 124.888 123.57 126.756H128.313C148.402 103.081 168.491 79.4052 188.58 55.7298C210.641 79.5034 232.704 103.277 254.765 127.051H258.014C259.089 125.478 260.162 123.908 261.237 122.335C237.313 95.9095 213.388 69.4821 189.463 43.0566C166.519 69.0889 143.575 95.1232 120.629 121.155Z" fill="#5E3021"/>
<path d="M261.237 122.335H310.957C309.778 124.006 308.599 125.675 307.419 127.346C290.946 127.247 274.473 127.149 258 127.051C259.079 125.478 260.156 123.908 261.235 122.335H261.237Z" fill="#5E3021"/>
<path d="M243.441 65.4217C248.148 71.2769 252.855 77.132 257.56 82.9892V40.6973H243.437C243.437 48.9394 243.439 57.1796 243.441 65.4217Z" fill="#FEF2E2"/>
<path d="M128.277 126.754H136.52V116.729" fill="#3F1F15"/>
<path d="M257.56 40.6973H266.977V83.2841H257.556C257.556 68.9802 257.56 55.0012 257.56 40.6973Z" fill="#D0C9B9"/>
<path d="M243.441 51.1602H257.56" stroke="black" stroke-miterlimit="10"/>
<path d="M189.463 43.0537C207.896 44.6263 226.331 46.1969 244.764 47.7695C266.825 72.6244 288.888 97.4792 310.949 122.332H260.939C237.114 95.9066 213.288 69.4791 189.463 43.0537Z" fill="#A0573F"/>
<path d="M257.265 51.1602C260.5 51.2584 263.736 51.3567 266.973 51.455" stroke="black" stroke-miterlimit="10"/>
<path d="M136.662 116.585C136.564 146.842 136.466 177.101 136.368 207.357H247.265V118.058C227.949 96.346 208.633 74.6364 189.317 52.9248C171.764 74.145 154.214 95.3632 136.662 116.583V116.585Z" fill="#FEF2E2"/>
<path d="M190.786 94.0419C194.767 94.0419 197.994 90.8089 197.994 86.8208C197.994 82.8326 194.767 79.5996 190.786 79.5996C186.806 79.5996 183.579 82.8326 183.579 86.8208C183.579 90.8089 186.806 94.0419 190.786 94.0419Z" fill="#C5B5A6"/>
<path d="M198.286 86.7458C198.262 89.8289 195.91 91.919 195.441 92.3362C194.806 92.8999 193.939 93.6501 192.596 93.8888C190.616 94.2418 188.994 93.2409 188.376 92.7996C188.266 92.7213 188.188 92.6591 188.167 92.6451C186.562 91.3834 185.935 88.85 185.931 87.2593C185.925 84.0319 188.486 79.5126 192.278 79.6009C195.769 79.6811 198.31 83.6247 198.286 86.7438V86.7458Z" fill="#D7EBF4"/>
<path d="M234.47 128.228H196.816V194.243H234.47V128.228Z" fill="#2E3344"/>
<path d="M234.47 128.228H196.816V134.711H234.47V128.228Z" fill="#5E3021"/>
<path d="M197.699 128.228H192.698V194.243H197.699V128.228Z" fill="#9A7B81"/>
<path d="M174.622 167.252C174.033 167.649 174.125 168.779 174.308 171.035C174.362 171.691 174.586 174.08 175.881 177.023C176.892 179.323 177.573 179.729 178.083 179.859C178.576 179.985 179.311 179.961 179.657 179.544C179.997 179.133 179.737 178.611 179.657 177.023C179.635 176.587 179.605 175.984 179.657 175.446C179.821 173.739 180.762 173.218 180.916 172.295C181.313 169.898 176.159 166.215 174.624 167.252H174.622Z" fill="#B3B3B3"/>
<path d="M185.005 176.393C183.111 174.184 182.15 175.352 178.398 172.295C177.417 171.497 175.667 169.938 173.993 167.567C173.134 166.352 171.969 164.673 171.162 162.209C169.949 158.507 170.317 155.373 170.533 153.7C170.884 150.968 171.2 148.523 173.05 146.451C173.256 146.221 174.446 145.352 176.826 143.615C177.505 143.119 178.153 142.658 179.028 142.67C179.387 142.674 179.901 142.883 180.916 143.3C182.404 143.912 182.718 144.128 183.433 144.245C184.1 144.353 184.662 144.299 185.007 144.245C184.808 145.123 184.436 145.577 184.064 145.821C183.455 146.219 182.914 146.014 182.49 146.451C182.019 146.939 182.154 147.761 182.176 148.028C182.29 149.372 183.453 150.26 184.692 151.179C190.482 155.474 190.981 155.777 191.928 156.222C194.21 157.299 195.377 157.831 196.647 157.484C198.475 156.982 199.798 155.089 200.106 154.647C200.903 153.508 200.771 153.087 201.68 152.126C202.122 151.658 203.149 150.569 204.511 150.549C205.077 150.541 205.298 150.724 206.399 151.179C206.769 151.332 206.425 151.179 210.175 152.441C212.966 153.38 213.33 153.522 213.634 154.017C214.189 154.916 214.013 156.104 213.949 156.539C213.8 157.536 213.432 157.802 213.32 158.745C213.244 159.373 213.136 160.282 213.634 160.952C214.117 161.6 214.719 161.421 215.522 161.896C217.1 162.833 217.374 165.078 217.41 165.363C217.656 167.371 216.447 167.517 216.467 170.091C216.475 171.2 216.703 171.533 216.782 173.557C216.818 174.491 216.802 175.26 216.782 175.763C216.077 175.498 214.986 175.173 213.636 175.133C212.357 175.095 211.004 175.314 208.289 176.395C205.738 177.408 204.503 178.18 203.57 178.601C201.482 179.544 198.112 180 192.56 177.657C191.591 179.085 191.341 180.274 191.301 181.123C191.255 182.1 191.477 182.932 190.987 183.329C190.498 183.724 189.641 183.412 189.413 183.329C187.023 182.459 187.421 179.209 185.009 176.395L185.005 176.393Z" fill="#E6E6E6"/>
<path d="M180.999 158.501C181.659 158.282 181.817 156.965 181.352 155.56C180.888 154.155 179.976 153.194 179.315 153.414C178.655 153.633 178.497 154.949 178.962 156.354C179.427 157.759 180.339 158.72 180.999 158.501Z" fill="#34373C"/>
<path d="M175.681 156.839C176.145 158.244 175.987 159.559 175.329 159.778C174.67 159.997 173.757 159.036 173.292 157.632C172.828 156.228 172.986 154.912 173.645 154.693C174.304 154.474 175.216 155.435 175.681 156.839Z" fill="#34373C"/>
<path d="M177.947 162.436C177.665 162.352 177.513 160.747 178.262 160.23C179.263 159.538 181.191 161.267 181.093 161.492C181.02 161.656 179.861 160.954 178.89 161.492C178.252 161.845 178.133 162.492 177.947 162.436Z" fill="#34373C"/>
<path d="M94.8247 212.177C92.1159 212.212 89.5032 211.1 87.6993 209.074C83.2427 204.07 81.9153 197.615 84.1536 192.771C85.6952 189.435 89.0848 186.528 92.9788 185.698C98.5026 184.52 100.224 188.552 106.217 188.35C114.313 188.077 116.017 180.551 122.101 181.277C128.822 182.079 130.274 191.683 135.633 191.296C140.01 190.979 140.416 184.478 146.516 182.749C152.104 181.167 157.456 185.008 157.988 185.401C162.639 188.841 164.952 195.476 164.183 202.972C163.694 207.742 159.67 211.367 154.885 211.425C134.866 211.674 114.846 211.925 94.8267 212.173L94.8247 212.177Z" fill="#A6BA9E"/>
<path d="M249.744 212.181C247.363 212.212 245.069 211.259 243.431 209.528C238.642 204.465 237.163 197.761 239.469 192.771C241.011 189.435 244.4 186.528 248.294 185.698C253.818 184.52 255.54 188.552 261.532 188.35C269.628 188.077 271.332 180.551 277.416 181.277C284.137 182.079 285.589 191.683 290.949 191.296C295.325 190.979 295.731 184.478 301.832 182.749C307.42 181.167 312.771 185.008 313.304 185.401C318.181 189.01 320.487 196.132 319.364 204.078C318.773 208.258 315.19 211.363 310.977 211.415C290.566 211.67 270.157 211.925 249.746 212.179L249.744 212.181Z" fill="#A6BA9E"/>
</svg>
