<svg width="245" height="144" viewBox="0 0 245 144" fill="none" xmlns="http://www.w3.org/2000/svg">
<path d="M21.1797 0.584961H16.6862C10.3692 0.584961 5.24829 5.71217 5.24829 12.0369C5.24829 18.3616 10.3692 23.4888 16.6862 23.4888H21.1797C27.4966 23.4888 32.6176 18.3616 32.6176 12.0369C32.6176 5.71217 27.4966 0.584961 21.1797 0.584961Z" fill="#FDF0AD"/>
<path d="M186.621 0.584961H50.9999C44.6829 0.584961 39.562 5.71217 39.562 12.0369C39.562 18.3616 44.6829 23.4888 50.9999 23.4888H186.621C192.938 23.4888 198.059 18.3616 198.059 12.0369C198.059 5.71217 192.938 0.584961 186.621 0.584961Z" fill="#FDF0AD"/>
<path d="M193.974 119.194H30.9837C24.2155 119.194 18.7288 124.688 18.7288 131.464C18.7288 138.241 24.2155 143.734 30.9837 143.734H193.974C200.742 143.734 206.229 138.241 206.229 131.464C206.229 124.688 200.742 119.194 193.974 119.194Z" fill="#FDF0AD"/>
<path d="M202.757 30.8508H34.8644C15.8007 30.8508 0.346436 46.324 0.346436 65.4112C0.346436 84.4983 15.8007 99.9715 34.8644 99.9715H202.757C221.82 99.9715 237.275 84.4983 237.275 65.4112C237.275 46.324 221.82 30.8508 202.757 30.8508Z" fill="#FDF0AD"/>
<path d="M232.373 143.325C239.141 143.325 244.627 137.832 244.627 131.055C244.627 124.279 239.141 118.785 232.373 118.785C225.604 118.785 220.118 124.279 220.118 131.055C220.118 137.832 225.604 143.325 232.373 143.325Z" fill="#FDF0AD"/>
<path d="M29.3496 97.1084C30.0277 97.3088 36.1429 99.2106 38.3365 105.288C40.2156 110.491 38.4468 116.593 33.8431 120.421H194.39C188.998 119.783 184.864 115.382 184.578 110.196C184.268 104.585 188.537 99.452 194.39 98.7444C139.378 98.2004 84.3619 97.6524 29.3496 97.1084Z" fill="#FDF0AD"/>
<path d="M176.323 62.2495C177.054 62.3231 181.2 62.8017 183.451 66.1432C185.976 69.8896 185.134 75.771 180.857 79.7669" fill="#4C4D4F"/>
<path d="M42.8301 9.04715V18.7813C50.375 17.5788 58.6062 16.6422 67.4543 16.1842C85.951 15.2312 102.381 16.6054 116.057 18.7813V9.04715C100.15 5.54204 79.9257 3.34163 57.0866 6.45001C52.0866 7.13304 47.3317 8.01648 42.8301 9.04715Z" fill="#BCBEBD"/>
<path d="M42.8301 18.7813C49.5213 20.4132 55.1136 21.4111 59.0311 22.0246C74.3946 24.4336 91.9355 26.9899 110.873 20.7281C113.161 19.9714 114.987 19.2434 116.102 18.7813C103.406 15.6361 85.9592 12.9858 65.5098 14.8876C57.1111 15.6688 49.5131 17.0962 42.8301 18.7813Z" fill="#808080"/>
<path d="M65.5098 53.5256V19.4233H94.0514V56.4131C84.5376 55.452 75.0237 54.4908 65.5098 53.5256Z" fill="#D6D7D8"/>
<path d="M60.9755 89.5012C60.4282 85.7303 60.7917 83.2272 62.2705 74.5769C65.4363 56.0779 65.179 59.3254 65.5099 56.4092C66.4208 48.4379 65.9551 45.2558 68.7492 41.4849C71.2901 38.0575 74.7909 36.4828 75.228 36.2947C77.9282 35.1209 80.2852 35.035 81.7068 34.9982C94.4682 34.6628 101.147 34.9982 101.147 34.9982C114.043 35.6485 113.026 34.9123 117.994 35.6485C124.023 36.5401 128.672 38.0902 134.194 40.1884C141.654 43.0227 153.422 47.898 168.541 55.7589C158.3 55.8775 150.506 55.8653 143.917 55.7589C141.163 55.7139 137.201 55.628 132.254 57.0554C132.254 57.0554 127.234 58.5033 122.532 61.5953C115.228 66.401 107.454 93.219 107.626 130.368C93.3571 121.501 81.7149 113.894 73.2795 108.307C70.9633 106.773 67.0621 104.127 64.2067 99.2231C63.786 98.4992 61.7558 94.9246 60.9674 89.489L60.9755 89.5012Z" fill="#E6E6E6"/>
<path d="M113.909 83.6771C110.506 95.2395 109.579 104.925 108.994 111.047C108.247 118.863 108.962 119.542 108.292 124.049C108.214 124.585 108.014 125.849 108.292 127.473C108.427 128.262 108.909 130.835 111.098 132.945C112.851 134.634 114.791 135.162 116.715 135.681C119.08 136.323 120.992 136.356 121.629 136.364C133.823 136.511 145.526 133.37 158.137 132.941C159.873 132.884 162.969 132.83 165.857 130.888C168.978 128.79 170.195 125.608 170.771 124.045C176.319 108.953 178.19 93.7262 180.6 82.99C180.971 81.3376 181.915 77.3008 181.302 72.0411C181.147 70.7118 180.812 67.8161 179.897 65.8816C176.176 58.0002 159.15 58.2415 151.114 58.356C137.426 58.5482 128.255 58.6791 121.629 65.1986C118.418 68.356 116.915 73.4644 113.909 83.673V83.6771Z" fill="#333333"/>
<path d="M116.703 82.3642C113.561 93.3254 112.707 102.511 112.168 108.315C111.478 115.726 112.14 116.372 111.519 120.642C111.445 121.149 111.261 122.352 111.519 123.886C111.645 124.634 112.087 127.072 114.113 129.076C115.73 130.679 117.52 131.178 119.297 131.673C121.478 132.282 123.243 132.315 123.831 132.323C135.089 132.462 145.89 129.485 157.528 129.08C159.129 129.023 161.989 128.974 164.656 127.133C167.54 125.145 168.663 122.127 169.19 120.646C174.309 106.336 176.037 91.898 178.263 81.718C178.606 80.1515 179.476 76.3233 178.913 71.3376C178.77 70.0779 178.459 67.3295 177.618 65.4971C174.182 58.0247 158.467 58.2538 151.049 58.3601C138.414 58.5442 129.95 58.6669 123.831 64.8468C120.865 67.8407 119.48 72.6832 116.703 82.3642Z" fill="#4E4E4E"/>
<path d="M112.814 83.0104C113.643 83.1127 115.175 83.1658 116.703 82.3601C117.201 82.0983 118.529 81.3049 119.942 78.4664C121.425 75.4889 121.135 74.0084 121.887 71.9797C123.222 68.3724 126.523 66.6014 128.365 65.493C129.395 64.8754 131.294 63.8611 135.494 62.8959C139.472 61.9838 142.667 61.7671 147.806 61.5994C151.96 61.4644 157.626 61.3499 165.302 61.5994C167.385 61.6648 171.813 61.8407 176.964 63.5462C179.374 64.3437 181.004 65.1658 182.148 66.7895C183.753 69.0677 183.529 71.6689 183.443 72.63C182.981 77.992 178.427 81.1658 177.61 81.7139C178.623 81.8448 181.237 82.0329 183.443 80.4174C185.494 78.9123 186.021 76.7078 186.682 73.9307C187.279 71.4399 188.014 68.3601 186.682 64.8468C185.457 61.6116 183.149 59.7834 182.148 59.0063C180.265 57.5503 178.467 56.8959 176.964 56.4092C169.268 53.9347 163.357 53.812 163.357 53.812C140.126 53.3417 127.32 53.084 119.293 62.2456C117.197 64.6382 112.646 70.8509 112.814 83.0063V83.0104Z" fill="#333333"/>
<path d="M158.994 118.695H126.213C122.92 118.695 120.416 115.689 120.947 112.376L125.379 84.8058C126.029 80.7771 129.44 77.8201 133.443 77.8201H165.355C169.399 77.8201 172.438 81.5869 171.658 85.6319L166.49 112.401C165.784 116.057 162.642 118.691 158.986 118.691L158.994 118.695Z" stroke="black" stroke-miterlimit="10"/>
<path d="M156.985 115.452H129.403C126.633 115.452 124.526 112.92 124.975 110.135L128.704 86.9366C129.248 83.546 132.124 81.0593 135.49 81.0593H162.34C165.743 81.0593 168.3 84.2291 167.642 87.6319L163.296 110.155C162.704 113.231 160.057 115.448 156.985 115.448V115.452Z" stroke="black" stroke-miterlimit="10"/>
<path d="M154.889 112.074H132.732C130.51 112.074 128.815 110.176 129.174 108.082L132.173 90.6668C132.61 88.1228 134.918 86.2537 137.622 86.2537H159.191C161.923 86.2537 163.978 88.634 163.451 91.1903L159.959 108.098C159.481 110.409 157.356 112.074 154.885 112.074H154.889Z" fill="#74828B" stroke="black" stroke-miterlimit="10"/>
<path d="M152.993 97.2842C152.769 102.834 146.523 107.947 141.976 106.368C138.733 105.239 136.886 100.887 137.442 97.2842C138.239 92.1063 144.084 87.8773 148.459 89.4969C151.474 90.6135 153.116 94.2617 152.993 97.2842Z" fill="#333333" stroke="black" stroke-miterlimit="10"/>
<path d="M150.326 97.497C150.179 101.153 146.061 104.524 143.067 103.485C140.931 102.74 139.713 99.8733 140.077 97.497C140.604 94.086 144.456 91.2966 147.336 92.3641C149.321 93.1003 150.404 95.5052 150.326 97.497Z" fill="#4D4D4D" stroke="black" stroke-miterlimit="10"/>
<path d="M146.016 97.0348C145.939 99.0143 143.708 100.838 142.087 100.274C140.931 99.8732 140.269 98.3191 140.469 97.0348C140.755 95.1861 142.838 93.681 144.399 94.2577C145.473 94.6544 146.061 95.9591 146.016 97.0348Z" fill="#CCCCCC" stroke="black" stroke-miterlimit="10"/>
</svg>
