<svg width="290" height="278" viewBox="0 0 290 278" fill="none" xmlns="http://www.w3.org/2000/svg">
<path d="M192.02 93.1921C192.02 91.4524 190.609 90.042 188.868 90.042C187.127 90.042 185.716 91.4524 185.716 93.1921V98.1799C185.716 99.9196 187.127 101.33 188.868 101.33C190.609 101.33 192.02 99.9196 192.02 98.1799V93.1921Z" fill="#CC9989"/>
<path d="M101.387 80.5908H95.3455C93.6046 80.5908 92.1934 82.0012 92.1934 83.741V94.7665C92.1934 96.5062 93.6046 97.9166 95.3455 97.9166H101.387C103.128 97.9166 104.539 96.5062 104.539 94.7665V83.741C104.539 82.0012 103.128 80.5908 101.387 80.5908Z" fill="#F4B79D"/>
<path d="M120.571 90.8287C124.332 90.5084 128.811 90.511 133.76 91.3065C135.278 91.5506 136.718 91.8499 138.073 92.1859C138.378 89.1381 138.627 85.9748 138.809 82.6987C138.929 80.4988 139.016 78.3489 139.069 76.2462C138.777 74.8286 138.252 73.8258 137.784 73.1406C136.145 70.7387 133.542 69.8015 133.839 68.6858C133.907 68.4312 134.094 68.2815 134.133 68.2527C135.016 67.5806 136.67 69.3736 137.477 68.9404C138.562 68.3577 136.384 64.6851 137.913 61.2987C138.53 59.9337 139.87 58.3455 141.146 58.4164C142.954 58.5187 144.596 61.9419 145.221 66.9007C145.305 67.9482 145.31 69.3237 145.037 70.904C144.808 72.2323 144.441 73.3507 144.086 74.2196C145.531 78.2045 146.416 81.6408 146.975 84.2055C147.632 87.2244 147.816 89.8364 148.184 95.063C148.333 97.2156 148.41 99.0085 147.256 100.547C146.552 101.487 145.56 102.109 143.639 102.752C139.636 104.091 136.106 104.012 134.488 103.957C131.346 103.847 127.135 103.526 122.142 102.644L120.565 90.8313L120.571 90.8287Z" fill="#EDAF98"/>
<path d="M115.601 89.6689C114.621 90.3541 112.133 92.2941 110.851 95.8275C109.9 98.4473 110.053 100.75 110.213 101.939C115.706 102.855 121.198 103.774 126.691 104.692C126.951 99.7599 127.208 94.8247 127.466 89.8895C123.51 89.8133 119.554 89.7424 115.598 89.6689H115.601Z" fill="#15193A"/>
<path d="M81.6068 127.192L86.5031 117.374C83.9052 114.41 81.3126 111.446 78.7146 108.483C72.4366 108.887 66.1611 109.291 59.883 109.698C63.6052 113.98 65.4729 117.513 66.4921 120.023C67.5323 122.585 68.0235 124.903 70.2957 126.507C71.3175 127.229 72.5889 127.727 72.9724 129.04C73.264 130.035 72.7597 130.526 72.4707 131.991C72.1424 133.644 72.5994 133.944 73.1117 138.522C73.4374 141.444 73.3533 142.21 72.9146 142.971C72.8122 143.15 71.9243 144.652 70.6057 144.728C68.6198 144.843 66.8546 141.654 66.1874 139.517C65.5569 137.511 65.1445 134.036 65.7881 131.697C65.88 131.355 66.1953 130.324 65.9037 129.1C65.8433 128.848 65.6804 128.266 65.226 127.583C62.5808 123.609 52.3572 115.867 52.3572 115.867C52.3572 115.867 50.8941 114.759 48.9529 112.93C47.2848 111.36 46.9565 110.832 46.8252 110.606C45.6956 108.682 45.9084 106.48 46.1185 105.558C46.4548 104.08 47.6736 101.983 54.7713 99.0638C57.4716 97.9533 63.9887 95.5067 79.8074 93.3646C80.8844 93.2176 81.7749 93.1048 82.3685 93.0312C85.7204 99.9301 89.0722 106.829 92.4266 113.728C93.6665 113.825 96.0227 114.198 98.2818 115.844C102.915 119.222 103.047 124.984 103.052 125.717C95.9045 126.207 88.7543 126.698 81.6068 127.187V127.192Z" fill="#EDAF98"/>
<path d="M70.7535 108.935C68.9673 104.17 67.1837 99.4081 65.3975 94.6435L79.2171 91.3516C83.4647 91.8923 86.8533 94.9952 87.615 98.9303C88.5896 103.971 84.7203 107.583 84.5128 107.769C83.6748 108.551 82.1145 109.777 79.8423 110.392C75.3032 111.615 71.5284 109.412 70.7535 108.937V108.935Z" fill="#15193A"/>
<path d="M101.904 171.42C103.993 174.533 111.343 186.283 109.522 202.396C107.494 220.352 95.5528 230.716 92.9785 232.848C94.5546 234.685 96.1307 236.523 97.7068 238.36C120.752 222.169 126.762 210.828 128.44 204.234C128.496 204.019 128.567 203.73 128.577 203.685C131.191 192.872 130.266 183.183 129.754 178.245C128.275 163.941 123.657 151.6 121.343 145.956C115.913 144.644 110.486 143.331 105.057 142.019C104.006 151.818 102.955 161.62 101.904 171.42Z" fill="#232768"/>
<path d="M82.9914 141.231C81.4704 143.584 79.5345 147.03 78.0004 151.469C76.3035 156.386 75.5943 161.096 75.3736 166.958C75.329 168.131 75.6126 180.453 76.7448 187.875C76.7658 188.006 76.8 188.232 76.6923 188.484C75.3841 191.542 57.8475 186.982 40.4423 181.658C39.7409 183.409 39.0422 185.158 38.3408 186.909C54.4616 197.01 68.205 203.877 78.2684 208.434C84.1261 211.088 87.4596 212.377 90.8718 211.06C97.2339 208.602 97.4204 198.771 103.218 170.37C105.419 159.584 106.543 150.556 107.158 144.382C99.1016 143.332 91.0478 142.281 82.9914 141.231Z" fill="#232768"/>
<path d="M91.1315 88.2278C94.0026 89.69 96.8685 91.1469 99.737 92.6091C102.85 91.1364 105.963 89.669 109.073 88.1963C107.378 94.1553 101.662 97.2503 97.2179 95.9115C94.113 94.977 91.7672 91.9161 91.1289 88.2278H91.1315Z" fill="#232768"/>
<path d="M115.627 89.656C113.331 89.1126 111.041 88.5718 108.745 88.0284C107.747 91.8663 104.531 94.6673 100.801 95.0243C96.4723 95.4417 92.251 92.4937 91.0505 87.9785L79.8078 91.63C80.2333 93.2209 81.1711 97.5943 79.1458 102.335C78.166 104.63 76.8158 106.26 75.7861 107.292C76.9393 110.772 77.9716 114.812 78.6021 119.349C80.3725 132.073 78.1713 142.791 76.0488 149.713C92.1407 149.089 108.233 148.459 124.327 147.834C122.78 132.603 121.233 117.372 119.685 102.141C118.795 101.38 116.452 99.1694 115.582 95.468C114.986 92.9321 115.343 90.8005 115.627 89.656Z" fill="#E56E45"/>
<path d="M77.2441 112.615C91.6496 111.615 106.058 110.617 120.463 109.617C120.699 111.473 120.933 113.329 121.17 115.185C106.848 115.881 92.5296 116.574 78.2082 117.272C78.1373 116.183 77.956 114.941 77.5699 113.615C77.4674 113.269 77.3597 112.935 77.2441 112.618V112.615Z" fill="white"/>
<path d="M78.7549 121.509C92.9423 120.398 107.124 119.285 121.312 118.175C121.49 120.141 121.672 122.107 121.85 124.073C107.613 124.743 93.3731 125.41 79.1384 126.079C79.0202 124.937 78.9177 123.774 78.8311 122.59C78.8048 122.228 78.7785 121.871 78.7549 121.511V121.509Z" fill="white"/>
<path d="M78.2004 140.181C93.2126 139.354 108.23 138.522 123.242 137.695C123.452 139.467 123.657 141.239 123.867 143.014C108.272 143.754 92.6767 144.497 77.084 145.237C77.4544 143.552 77.83 141.867 78.203 140.181H78.2004Z" fill="white"/>
<path d="M82.5579 90.7376C83.0464 91.8874 85.8492 98.7547 82.3713 104.601C81.6175 105.866 80.7007 106.866 79.7734 107.654C81.4861 115.516 82.7233 124.777 82.6419 135.155C82.6156 138.271 82.4738 141.263 82.2426 144.117C83.4063 144.014 84.57 143.912 85.7337 143.81C85.9727 138.194 85.9491 131.928 85.4579 125.129C85.0244 119.154 84.2942 113.65 83.4221 108.678C84.415 107.496 85.6365 105.709 86.3694 103.304C88.3211 96.9197 85.2792 91.3414 84.5569 90.0918L82.5579 90.7402V90.7376Z" fill="white"/>
<path d="M113.473 88.9758C113.192 89.9287 111.542 95.8851 115.046 100.61C116.029 101.936 117.179 102.839 118.183 103.456C118.861 116.576 119.538 129.699 120.213 142.82C119.299 142.841 118.385 142.862 117.471 142.883C116.625 130.369 115.774 117.855 114.928 105.341C114.151 104.624 113.386 103.768 112.706 102.75C108.971 97.1688 110.302 90.5693 110.82 88.4561C111.705 88.6293 112.59 88.7999 113.473 88.9732V88.9758Z" fill="white"/>
<path d="M91.0502 87.9785L87.3018 89.1966C87.9112 90.4645 88.8831 92.1 90.425 93.7039C93.4249 96.8225 96.8634 98.0222 98.6128 98.4974C98.9884 96.5338 99.3614 94.5754 99.7371 92.6118C98.027 91.8007 96.2539 90.9055 94.4414 89.9158C93.2646 89.2727 92.1351 88.6269 91.0502 87.9811V87.9785Z" fill="#15193A"/>
<path d="M99.737 92.6086C100.822 91.9838 101.907 91.3538 102.992 90.7237C104.778 89.6842 106.559 88.6473 108.332 87.6104L111.066 88.3769C110.799 89.7183 109.813 93.719 106.188 96.31C105.106 97.0844 104.024 97.5622 103.102 97.8641C101.98 96.1105 100.859 94.3622 99.7344 92.6086H99.737Z" fill="#15193A"/>
<path d="M84.0453 61.9422C83.7353 62.4856 82.9972 64.2969 86.0338 68.6021C85.8814 68.4026 85.645 68.1086 85.3166 67.791C84.7204 67.2161 84.2186 66.7357 83.5357 66.6464C82.9131 66.565 82.1986 66.8197 81.7836 67.2607C80.4833 68.652 82.1356 71.915 82.3352 72.3009C83.5698 74.674 85.6608 75.8947 86.8665 76.4538C88.348 79.8219 90.1631 82.1346 91.4476 83.5417C93.8012 86.1222 96.189 88.7447 99.4016 88.5793C101.529 88.469 103.05 87.1906 103.717 86.6314C105.005 85.5473 106.126 84.0063 107.584 78.7009C107.779 78.0027 109.985 69.7467 108.743 63.302C108.574 62.4252 108.251 61.1205 107.166 60.2753C105.977 59.346 104.477 59.4483 103.513 59.514C100.542 59.7109 97.5445 59.6111 94.5919 60.0101C86.4041 61.1179 84.8333 60.564 84.0505 61.9422H84.0453Z" fill="#F4B79D"/>
<path d="M93.4117 71.128C95.0403 71.38 96.6663 71.6267 98.316 71.6897C102.099 71.8367 105.595 70.8654 108.873 69.0331C111.059 67.8124 113.037 66.3135 114.755 64.4812C114.986 64.237 115.175 63.9561 115.33 63.6569C115.892 62.5701 115.747 61.6933 114.736 61.016C113.152 59.9581 111.66 58.7427 109.835 58.089C109.609 58.0076 109.551 57.8475 109.509 57.6427C108.258 51.878 103.26 47.0871 97.457 46.0765C96.4982 45.9085 95.5394 45.8638 94.5912 46.066C93.4485 46.3101 92.2848 46.2628 91.1343 46.4046C87.7956 46.8036 84.9114 48.0112 83.0647 51.0196C82.8257 51.4107 82.5604 51.7625 82.1506 52.0197C81.5385 52.403 81.2259 53.012 81.0342 53.6945C80.9843 53.8783 80.9422 54.1146 81.0552 54.2248C81.3783 54.5451 81.1734 54.8417 81.0762 55.1384C80.2199 57.7057 79.9966 60.3203 80.4563 62.9901C80.4931 63.2106 80.472 63.3524 80.2724 63.4889C78.5151 64.6754 78.9301 66.5813 80.3565 67.6996C81.0027 68.2062 81.7697 68.4766 82.5499 68.7023C82.8441 68.7864 83.1356 68.8704 83.4298 68.957C84.6644 69.2247 85.8964 69.5056 87.1074 69.8679C88.0189 70.0228 88.9199 70.2144 89.8104 70.4638C91.0266 70.6003 92.2165 70.8917 93.4143 71.1227V71.128H93.4117Z" fill="#FBC966"/>
<path d="M41.9893 188.867C41.154 189.019 39.9929 189.361 38.958 190.23C36.4021 192.374 37.0956 195.666 35.0965 196.425C33.9775 196.85 32.5354 196.283 31.8288 195.438C31.4164 194.944 30.9278 193.96 32.2648 189.324C33.6991 184.352 34.4609 181.848 36.6963 180.96C37.944 180.464 39.4176 180.758 40.119 180.876C41.6189 181.131 42.7432 181.711 43.413 182.126C42.935 184.373 42.4621 186.62 41.984 188.867H41.9893Z" fill="black"/>
<path d="M98.3999 237.487C98.0479 238.259 97.6618 239.403 97.7826 240.75C98.0794 244.071 101.176 245.388 100.656 247.46C100.365 248.62 99.0724 249.478 97.9744 249.573C97.3334 249.628 96.2459 249.463 93.2093 245.717C89.9521 241.695 88.334 239.637 88.8856 237.295C89.1929 235.988 90.2778 234.951 90.7769 234.442C91.8434 233.36 92.965 232.769 93.6874 232.457C95.2582 234.134 96.8291 235.809 98.3999 237.487Z" fill="black"/>
<path d="M197.216 83.1846H190.623C190.115 83.1846 189.703 83.5959 189.703 84.1034V104.915C189.703 105.423 190.115 105.834 190.623 105.834H197.216C197.724 105.834 198.135 105.423 198.135 104.915V84.1034C198.135 83.5959 197.724 83.1846 197.216 83.1846Z" fill="#EDAF98"/>
<path d="M178.613 149.558L162.707 188.575C162.437 189.236 162.324 189.953 162.374 190.667C163.488 206.245 164.601 221.825 165.715 237.402C165.873 239.612 167.567 241.408 169.766 241.694C170.808 241.831 171.854 241.967 172.897 242.104C175.668 242.466 178.135 240.327 178.166 237.531C178.319 224.09 178.468 210.65 178.621 197.209C178.631 196.356 178.873 195.521 179.325 194.796C183.625 187.895 187.922 180.996 192.222 174.095C194.008 171.226 198.161 171.149 200.053 173.953C203.244 178.683 206.436 183.414 209.63 188.144C210.655 189.662 212.475 190.441 214.28 190.134C229.478 187.554 244.677 184.976 259.878 182.395C263.264 181.82 264.89 177.912 262.91 175.108C262.721 174.84 262.529 174.57 262.34 174.302C261.418 172.995 259.886 172.252 258.289 172.333C246.427 172.942 234.564 173.549 222.701 174.158C220.897 174.25 219.202 173.294 218.349 171.703C214.027 163.644 209.706 155.582 205.388 147.523C204.505 145.88 202.729 144.917 200.87 145.079C194.757 145.61 188.645 146.143 182.532 146.673C180.788 146.825 179.275 147.938 178.615 149.56L178.613 149.558Z" fill="#15193A"/>
<path d="M167.158 238.444C166.693 239.563 165.868 241.083 164.342 242.261C160.575 245.18 156.186 243.222 154.523 245.782C153.593 247.215 153.95 249.399 154.919 250.641C155.484 251.365 156.714 252.342 163.591 251.874C170.967 251.37 174.697 251.061 176.612 248.21C177.681 246.616 177.712 244.474 177.76 243.458C177.857 241.29 177.384 239.544 177.006 238.484C173.725 238.473 170.439 238.457 167.158 238.447V238.444Z" fill="black"/>
<path d="M259.983 182.414C261.102 182.878 262.623 183.702 263.803 185.228C266.724 188.992 264.764 193.379 267.325 195.04C268.76 195.97 270.945 195.613 272.188 194.644C272.913 194.08 273.89 192.851 273.422 185.978C272.918 178.607 272.608 174.879 269.755 172.966C268.161 171.897 266.017 171.866 265.001 171.819C262.831 171.721 261.084 172.194 260.023 172.572C260.012 175.851 259.997 179.135 259.986 182.414H259.983Z" fill="black"/>
<path d="M172.839 103.726C166.338 100.39 159.839 97.0532 153.338 93.7193C150.351 86.3453 147.365 78.9713 144.378 71.5974C144.62 71.1669 145.103 70.4712 145.959 70.0171C147.367 69.2689 149.196 69.4947 150.703 70.5447C154.394 75.6375 158.082 80.7276 161.773 85.8203C169.679 88.805 177.583 91.7898 185.49 94.7746C187.539 98.5206 186.289 103.185 182.855 105.309C179.711 107.254 175.435 106.635 172.842 103.729L172.839 103.726Z" fill="#CC9989"/>
<path d="M205.516 101.093C213.082 104.902 220.649 108.711 228.215 112.523C231.073 119.949 233.931 127.373 236.786 134.799C236.536 135.227 236.04 135.912 235.178 136.351C233.757 137.073 231.932 136.818 230.445 135.742C226.846 130.586 223.245 125.43 219.646 120.275C211.794 117.153 203.94 114.029 196.089 110.908C194.161 106.506 195.8 101.914 198.907 100.421C201.889 98.9901 205.196 100.904 205.516 101.093Z" fill="#CC9989"/>
<path d="M166.944 100.676C167.625 96.4675 168.305 92.2647 168.985 88.0566L180.407 91.3958C183.273 93.551 184.449 97.2131 183.367 100.395C181.983 104.466 177.667 105.487 177.438 105.537C176.503 105.758 174.859 106.005 172.952 105.506C169.143 104.511 167.312 101.342 166.944 100.678V100.676Z" fill="#15193A"/>
<path d="M207.691 115.5C209.979 111.903 212.265 108.307 214.553 104.71L203.796 99.6282C200.221 99.3368 196.908 101.295 195.603 104.39C193.932 108.351 196.48 111.979 196.617 112.168C197.168 112.953 198.235 114.229 199.992 115.124C203.502 116.909 206.977 115.757 207.691 115.5Z" fill="#15193A"/>
<path d="M180.743 91.0859C183.57 95.0997 183.176 100.276 180.215 103.201C176.95 106.424 172.111 105.385 171.783 105.309C170.906 120.409 170.026 135.508 169.148 150.608C181.973 149.203 194.799 147.799 207.623 146.395C204.813 128.31 202.002 110.226 199.191 92.1412C197.791 92.9393 195.635 93.9158 192.866 94.2492C186.769 94.9816 182.141 92.052 180.743 91.0886V91.0859Z" fill="#E56E45"/>
<path d="M144.378 71.597C145.284 71.5708 146.243 71.5708 147.249 71.6049C148.352 71.6417 149.395 71.7178 150.372 71.8176C150.632 71.0274 150.952 70.3947 151.255 69.9012C152.98 67.0871 155.875 65.8795 155.476 64.63C155.384 64.3438 155.163 64.1863 155.116 64.1548C154.076 63.4434 152.3 65.5672 151.362 65.1209C150.101 64.5224 152.36 60.2355 150.44 56.4842C149.665 54.9695 148.058 53.2448 146.613 53.3971C144.572 53.6124 142.901 57.5842 142.47 63.2439C142.305 65.4096 142.741 67.1055 142.901 67.7723C143.295 69.3919 143.878 70.6835 144.372 71.5997L144.378 71.597Z" fill="#CC9989"/>
<path d="M234.976 132.97C235.129 132.988 237.262 133.28 237.924 134.768C238.41 135.858 237.698 136.685 238.312 137.391C238.767 137.913 239.568 137.926 240.629 137.942C242.405 137.968 243.314 137.42 243.755 137.926C243.952 138.152 244.002 138.525 243.884 138.8C243.464 139.78 240.887 139.543 240.887 139.69C240.887 139.822 242.954 139.549 243.705 140.614C243.944 140.956 244.115 141.525 243.9 141.924C243.185 143.258 238.607 142.035 238.084 141.89C236.442 141.439 234.461 140.872 232.757 139.105C231.856 138.173 230.261 136.522 230.797 134.928C231.301 133.435 233.413 132.778 234.976 132.97Z" fill="#CC9989"/>
<path d="M202.31 71.7181C203.15 73.6738 200.266 77.3411 200.329 77.2676C200.466 77.1048 200.681 76.8686 200.973 76.6139C201.503 76.1545 201.95 75.7686 202.533 75.724C203.064 75.682 203.657 75.9288 203.988 76.3225C205.028 77.559 203.481 80.2497 203.295 80.5647C202.144 82.5204 200.318 83.4576 199.27 83.8776C197.865 86.6629 196.226 88.5398 195.075 89.6739C192.966 91.753 190.828 93.8662 188.114 93.5827C186.318 93.3937 185.088 92.2439 184.547 91.7399C182.112 89.4665 183.714 86.3479 181.629 84.8542C180.139 83.7857 178.392 84.5602 178.106 83.7123C177.867 83.0008 178.907 81.9245 180.741 80.024C181.697 79.0343 181.639 79.2259 181.794 78.9713C183.005 76.9814 180.594 74.9549 181.335 71.7653C181.458 71.2298 181.76 70.0013 182.806 69.2741C183.856 68.5417 185.12 68.6939 185.934 68.7911C188.44 69.0903 190.983 69.1402 193.465 69.6101C200.339 70.9122 201.797 70.5368 202.304 71.7181H202.31Z" fill="#CC9989"/>
<mask id="mask0_1299_1729" style="mask-type:luminance" maskUnits="userSpaceOnUse" x="169" y="91" width="39" height="60">
<path d="M180.743 91.0859C183.57 95.0997 183.176 100.276 180.215 103.201C176.95 106.424 172.111 105.385 171.783 105.309C170.906 120.409 170.026 135.508 169.148 150.608C181.973 149.203 194.799 147.799 207.623 146.395C204.813 128.31 202.002 110.226 199.191 92.1412C197.791 92.9393 195.635 93.9158 192.866 94.2492C186.769 94.9816 182.141 92.052 180.743 91.0886V91.0859Z" fill="white"/>
</mask>
<g mask="url(#mask0_1299_1729)">
<path d="M165.46 117.422H209.32V121.131H165.455V117.422H165.46Z" fill="white"/>
<path d="M165.46 125.323H209.32V129.033H165.455V125.323H165.46Z" fill="white"/>
<path d="M184.433 91.6113C186.204 96.305 185.413 101.408 182.324 104.779C179.637 107.711 176.14 108.315 174.945 108.467C174.241 124.095 173.54 139.719 172.836 155.347C173.713 155.522 174.593 155.698 175.471 155.874C176.348 140.775 177.228 125.675 178.105 110.575C178.954 110.347 184.785 108.659 187.593 102.674C190.049 97.4417 188.465 92.5984 188.121 91.6113H184.431H184.433Z" fill="white"/>
</g>
<path d="M204.46 74.4904C205.737 76.8372 207.576 80.9272 208.151 86.3454C208.711 91.6271 207.825 95.9139 207.098 98.4603C205.816 99.4342 203.654 100.752 200.772 101.093C192.847 102.03 187.357 94.646 187.068 94.247C192.201 92.6325 196.063 88.624 197.082 83.7124C198.038 79.0974 196.136 75.3645 195.5 74.2305C198.487 74.3171 201.474 74.4037 204.46 74.4904Z" fill="black"/>
<path d="M193.644 78.9294C192.254 78.8533 190.87 78.7745 189.496 78.5383C186.346 78.0001 183.63 76.5904 181.243 74.5035C179.651 73.1148 178.279 71.5318 177.181 69.7205C177.034 69.479 176.927 69.2138 176.85 68.9382C176.577 67.9433 176.85 67.2424 177.801 66.8617C179.293 66.2632 180.738 65.5203 182.359 65.2972C182.559 65.2709 182.635 65.1475 182.706 64.9848C184.744 60.4433 189.709 57.3562 194.676 57.5347C195.496 57.5636 196.297 57.6948 197.045 58.0256C197.946 58.4272 198.916 58.59 199.84 58.9076C202.528 59.8212 204.697 61.3175 205.698 64.1264C205.827 64.4913 205.984 64.8273 206.279 65.1108C206.717 65.5334 206.87 66.0926 206.906 66.6885C206.917 66.8486 206.909 67.0508 206.796 67.1216C206.473 67.329 206.591 67.6099 206.62 67.8724C206.88 70.1405 206.607 72.3404 205.761 74.4641C205.69 74.64 205.685 74.7607 205.827 74.9077C207.072 76.194 206.394 77.6956 205.023 78.3703C204.4 78.6774 203.72 78.764 203.035 78.8165C202.777 78.8349 202.52 78.8533 202.265 78.8717C201.198 78.8769 200.132 78.8953 199.071 78.9845C198.291 78.9557 197.513 78.9557 196.735 79.0055C195.708 78.9058 194.673 78.9399 193.644 78.9215V78.9268V78.9294Z" fill="#FBC966"/>
<path d="M125.824 64.3153C124.75 64.3389 124.385 63.9871 124.248 63.7903C123.607 62.8715 124.81 60.8606 126.087 59.8526C128.299 58.1095 131.314 58.9102 131.866 59.065" stroke="#FDF0AD" stroke-width="3" stroke-linecap="round" stroke-linejoin="round"/>
<path d="M123.197 44.3649C123.817 44.3387 126.389 44.3019 128.714 46.2025C131.015 48.0821 131.501 50.5733 131.603 51.1902" stroke="#D0765B" stroke-width="2" stroke-linecap="round" stroke-linejoin="round"/>
<path d="M133.311 50.1393C133.819 50.1393 134.23 49.728 134.23 49.2205C134.23 48.7131 133.819 48.3018 133.311 48.3018C132.803 48.3018 132.392 48.7131 132.392 49.2205C132.392 49.728 132.803 50.1393 133.311 50.1393Z" fill="#4D853F"/>
<path d="M147.556 36.8594C147.629 38.5211 147.703 40.1828 147.774 41.8445" stroke="#F29AB3" stroke-width="2" stroke-linecap="round" stroke-linejoin="round"/>
<path d="M135.407 41.0283C136.416 42.1414 137.425 43.2544 138.433 44.3648" stroke="#F29AB3" stroke-width="2" stroke-linecap="round" stroke-linejoin="round"/>
<path d="M158.525 56.1253C159.534 56.0991 160.54 56.0728 161.549 56.0439" stroke="#F29AB3" stroke-width="2" stroke-linecap="round" stroke-linejoin="round"/>
<path d="M135.938 42.264C136.591 42.264 137.12 41.7351 137.12 41.0827C137.12 40.4303 136.591 39.9014 135.938 39.9014C135.285 39.9014 134.756 40.4303 134.756 41.0827C134.756 41.7351 135.285 42.264 135.938 42.264Z" fill="#D7EBF4"/>
<path d="M141.191 38.3265C141.844 38.3265 142.373 37.7976 142.373 37.1452C142.373 36.4928 141.844 35.9639 141.191 35.9639C140.538 35.9639 140.009 36.4928 140.009 37.1452C140.009 37.7976 140.538 38.3265 141.191 38.3265Z" fill="#D7EBF4"/>
<path d="M156.689 41.7396C157.342 41.7396 157.871 41.2107 157.871 40.5583C157.871 39.9058 157.342 39.377 156.689 39.377C156.036 39.377 155.507 39.9058 155.507 40.5583C155.507 41.2107 156.036 41.7396 156.689 41.7396Z" fill="#D7EBF4"/>
<path d="M166.409 42.0023C167.061 42.0023 167.591 41.4734 167.591 40.821C167.591 40.1685 167.061 39.6396 166.409 39.6396C165.756 39.6396 165.227 40.1685 165.227 40.821C165.227 41.4734 165.756 42.0023 166.409 42.0023Z" fill="#D7EBF4"/>
<path d="M170.349 55.6526C171.002 55.6526 171.531 55.1238 171.531 54.4713C171.531 53.8189 171.002 53.29 170.349 53.29C169.696 53.29 169.167 53.8189 169.167 54.4713C169.167 55.1238 169.696 55.6526 170.349 55.6526Z" fill="#D7EBF4"/>
<path d="M163.913 43.8398C163.214 43.9186 161.651 44.1995 160.235 45.4149C157.742 47.5544 157.85 50.7597 157.871 51.1902" stroke="#FDF0AD" stroke-width="3" stroke-linecap="round" stroke-linejoin="round"/>
<path d="M171.269 46.1261C171.894 45.6851 172.603 45.1049 173.31 44.3542C174.526 43.0626 175.274 41.75 175.732 40.7656" stroke="#FDF0AD" stroke-width="3" stroke-linecap="round" stroke-linejoin="round"/>
</svg>
