<svg width="48" height="41" viewBox="0 0 48 41" fill="none" xmlns="http://www.w3.org/2000/svg">
<path d="M14.8674 40.0969H33.1231C36.6476 40.0969 38.4903 38.2835 38.5438 34.7769L38.765 17.9603L42.4015 18.7684C44.5025 19.2065 45.8996 18.3563 46.3509 16.3381L47.8741 9.87007C48.3374 7.84702 47.5117 6.3255 45.5659 5.50943L33.2376 0.286581C32.3515 -0.103563 31.5706 -0.0913663 30.7723 0.298778C28.3207 1.44818 26.5495 1.96358 24.0042 1.96358C21.441 1.96358 19.6754 1.44818 17.2238 0.298778C16.4199 -0.0913663 15.6445 -0.103563 14.7586 0.286581L2.43021 5.50943C0.478678 6.3255 -0.329221 7.84702 0.121905 9.87007L1.6396 16.3381C2.09073 18.3563 3.49356 19.2065 5.59461 18.7684L9.23758 17.9603L9.45219 34.7769C9.50015 38.2835 11.3428 40.0969 14.8674 40.0969ZM24.0042 8.10052C21.2418 8.10052 19.1015 6.64052 18.252 4.41136C20.033 5.02435 21.9898 5.35524 24.0042 5.35524C26.0064 5.35524 27.9752 5.02435 29.7442 4.41136C28.9069 6.61043 26.791 8.10052 24.0042 8.10052Z" fill="#303030"/>
</svg>
